{"glyphs":{"0":{"ha":885,"x_min":0,"x_max":0,"o":"m 443 -21 b 57 489 211 -21 57 179 b 443 993 57 792 207 993 b 828 489 674 993 828 796 b 443 -21 828 185 678 -21 m 443 133 b 660 489 575 133 660 272 b 443 840 660 703 575 840 b 225 489 310 840 225 703 b 443 133 225 272 310 133 "},"1":{"ha":531,"x_min":0,"x_max":0,"o":"m 263 0 l 263 724 b 43 626 217 660 143 626 l 32 626 l 32 786 l 43 786 b 264 958 188 786 264 846 l 264 972 l 429 972 l 429 0 "},"2":{"ha":796,"x_min":0,"x_max":0,"o":"m 742 697 b 267 150 742 376 307 376 l 724 150 l 724 0 l 78 0 l 78 92 b 572 692 78 464 572 446 b 414 843 572 782 510 843 b 231 650 313 843 233 775 l 56 650 b 417 993 71 869 221 993 b 742 697 611 993 742 874 "},"3":{"ha":843,"x_min":0,"x_max":0,"o":"m 439 -22 b 42 310 210 -22 53 104 l 213 310 b 439 129 222 197 310 129 b 633 281 558 129 633 189 b 438 426 633 371 560 426 l 286 426 l 286 564 l 438 564 b 596 703 536 564 596 626 b 433 843 596 783 531 843 b 247 685 335 843 260 781 l 75 685 b 439 993 94 871 239 993 b 763 733 628 993 763 885 b 567 504 763 618 683 529 b 796 257 710 478 796 386 b 439 -22 796 92 654 -22 "},"4":{"ha":878,"x_min":0,"x_max":0,"o":"m 517 0 l 517 217 l 44 217 l 44 364 l 515 972 l 683 972 l 683 367 l 851 367 l 851 217 l 683 217 l 683 0 m 225 367 l 517 367 l 517 744 "},"5":{"ha":847,"x_min":0,"x_max":0,"o":"m 436 -22 b 58 297 233 -22 83 100 l 235 297 b 438 131 250 196 332 131 b 626 319 556 131 626 214 b 440 507 626 422 557 507 b 272 429 376 507 322 482 l 86 429 l 172 972 l 750 972 l 750 821 l 310 821 l 267 544 b 492 643 319 603 396 643 b 794 321 669 643 794 510 b 436 -22 794 118 649 -22 "},"6":{"ha":886,"x_min":0,"x_max":0,"o":"m 478 -21 b 57 489 215 -21 57 189 b 481 993 57 799 222 993 b 838 683 678 993 821 869 l 667 683 b 478 843 657 778 579 843 b 213 513 317 843 221 710 l 213 465 b 510 654 254 572 364 654 b 831 324 697 654 831 519 b 478 -21 831 121 686 -21 m 469 129 b 661 324 565 129 661 193 b 471 517 661 454 567 517 b 274 322 374 517 274 450 b 469 129 274 194 371 129 "},"7":{"ha":749,"x_min":0,"x_max":0,"o":"m 94 0 l 538 822 l 31 822 l 31 972 l 721 972 l 721 822 l 286 0 "},"8":{"ha":872,"x_min":0,"x_max":0,"o":"m 438 -21 b 49 267 193 -21 49 108 b 253 507 49 379 126 465 b 93 731 150 551 93 636 b 438 993 93 872 221 993 b 779 731 653 993 779 874 b 621 507 779 638 722 553 b 824 267 747 467 824 379 b 438 -21 824 111 685 -21 m 438 561 b 615 707 543 561 615 621 b 438 849 615 790 543 849 b 260 707 332 849 260 790 b 438 561 260 621 332 561 m 438 131 b 651 286 571 131 651 200 b 438 442 651 371 571 442 b 222 286 304 442 222 371 b 438 131 222 200 304 131 "},"9":{"ha":857,"x_min":0,"x_max":0,"o":"m 419 -21 b 51 282 215 -21 72 99 l 221 282 b 421 129 236 186 311 129 b 647 450 560 129 640 246 b 647 500 649 467 649 483 b 394 326 624 400 531 326 b 51 658 193 326 51 464 b 404 993 51 856 199 993 b 801 481 657 993 801 790 b 419 -21 801 172 660 -21 m 411 467 b 603 656 514 467 603 535 b 413 846 603 778 515 846 b 217 657 308 846 218 776 b 411 467 217 536 307 467 "},"\r":{"ha":833,"x_min":0,"x_max":0,"o":""}," ":{"ha":303,"x_min":0,"x_max":0,"o":""},"A":{"ha":1013,"x_min":0,"x_max":0,"o":"m 25 0 l 422 972 l 589 972 l 988 0 l 815 0 l 717 240 l 296 240 l 197 0 m 356 388 l 657 388 l 507 757 "},"Á":{"ha":1013,"x_min":0,"x_max":0,"o":"m 483 1019 l 394 1118 l 775 1432 l 865 1333 m 25 0 l 422 972 l 589 972 l 988 0 l 815 0 l 717 240 l 296 240 l 197 0 m 356 388 l 657 388 l 507 757 "},"Ă":{"ha":1013,"x_min":0,"x_max":0,"o":"m 506 1063 b 258 1283 360 1063 258 1153 l 258 1296 l 399 1296 l 399 1283 b 506 1183 399 1224 443 1183 b 610 1283 567 1183 610 1224 l 610 1296 l 749 1296 l 749 1283 b 506 1063 749 1153 649 1063 m 25 0 l 422 972 l 589 972 l 988 0 l 815 0 l 717 240 l 296 240 l 197 0 m 356 388 l 657 388 l 507 757 "},"Â":{"ha":1013,"x_min":0,"x_max":0,"o":"m 299 1026 l 201 1118 l 453 1346 l 561 1346 l 810 1121 l 713 1026 l 506 1219 m 25 0 l 422 972 l 589 972 l 988 0 l 815 0 l 717 240 l 296 240 l 197 0 m 356 388 l 657 388 l 507 757 "},"Ä":{"ha":1013,"x_min":0,"x_max":0,"o":"m 360 1046 b 258 1147 303 1046 258 1092 b 360 1247 258 1203 303 1247 b 460 1147 415 1247 460 1203 b 360 1046 460 1092 415 1046 m 653 1046 b 551 1147 597 1046 551 1092 b 653 1247 551 1203 597 1247 b 753 1147 708 1247 753 1203 b 653 1046 753 1092 708 1046 m 25 0 l 422 972 l 589 972 l 988 0 l 815 0 l 717 240 l 296 240 l 197 0 m 356 388 l 657 388 l 507 757 "},"À":{"ha":1013,"x_min":0,"x_max":0,"o":"m 529 1019 l 149 1333 l 238 1432 l 619 1118 m 25 0 l 422 972 l 589 972 l 988 0 l 815 0 l 717 240 l 296 240 l 197 0 m 356 388 l 657 388 l 507 757 "},"Ā":{"ha":1013,"x_min":0,"x_max":0,"o":"m 236 1093 l 236 1222 l 778 1222 l 778 1093 m 25 0 l 422 972 l 589 972 l 988 0 l 815 0 l 717 240 l 296 240 l 197 0 m 356 388 l 657 388 l 507 757 "},"Ą":{"ha":1013,"x_min":0,"x_max":0,"o":"m 999 -282 b 893 -300 961 -294 928 -300 b 728 -174 792 -300 728 -250 b 838 0 728 -112 768 -47 l 815 0 l 717 240 l 296 240 l 197 0 l 25 0 l 422 972 l 589 972 l 988 0 l 968 0 b 858 -125 897 -39 858 -85 b 913 -168 858 -154 881 -168 b 978 -154 933 -168 953 -162 m 356 388 l 657 388 l 507 757 "},"Å":{"ha":1013,"x_min":0,"x_max":0,"o":"m 507 1024 b 346 1176 415 1024 346 1090 b 507 1329 346 1264 415 1329 b 668 1176 599 1329 668 1264 b 507 1024 668 1090 599 1024 m 507 1108 b 575 1176 550 1108 575 1140 b 507 1244 575 1214 550 1244 b 439 1176 464 1244 439 1214 b 507 1108 439 1140 464 1108 m 25 0 l 422 972 l 589 972 l 988 0 l 815 0 l 717 240 l 296 240 l 197 0 m 356 388 l 657 388 l 507 757 "},"Ǎ":{"ha":1013,"x_min":0,"x_max":0,"o":"m 453 1051 l 201 1278 l 299 1369 l 506 1176 l 713 1369 l 810 1276 l 561 1051 m 25 0 l 422 972 l 589 972 l 988 0 l 815 0 l 717 240 l 296 240 l 197 0 m 356 388 l 657 388 l 507 757 "},"Ã":{"ha":1013,"x_min":0,"x_max":0,"o":"m 640 1072 b 424 1171 543 1072 474 1171 b 371 1081 392 1171 371 1133 l 240 1081 b 388 1294 240 1210 299 1294 b 600 1194 482 1294 547 1194 b 644 1283 628 1194 644 1222 l 772 1283 b 640 1072 772 1146 725 1072 m 25 0 l 422 972 l 589 972 l 988 0 l 815 0 l 717 240 l 296 240 l 197 0 m 356 388 l 657 388 l 507 757 "},"Æ":{"ha":1353,"x_min":0,"x_max":0,"o":"m 25 0 l 392 972 l 1286 972 l 1286 822 l 771 822 l 771 572 l 1239 572 l 1239 426 l 771 426 l 771 150 l 1299 150 l 1299 0 l 606 0 l 606 244 l 286 244 l 194 0 m 342 392 l 606 392 l 606 821 l 504 821 "},"B":{"ha":939,"x_min":0,"x_max":0,"o":"m 101 0 l 101 972 l 563 972 b 863 726 739 972 863 872 b 663 500 863 615 782 529 b 883 264 797 479 883 388 b 571 0 883 108 756 0 m 267 567 l 557 567 b 697 700 640 567 697 622 b 569 824 697 772 644 824 l 267 824 m 267 150 l 579 150 b 714 288 663 150 714 210 b 564 422 714 367 653 422 l 267 422 "},"C":{"ha":1071,"x_min":0,"x_max":0,"o":"m 546 -21 b 57 489 247 -21 57 185 b 546 993 57 783 243 993 b 1014 597 799 993 972 846 l 843 597 b 546 843 813 750 700 843 b 228 489 350 843 228 706 b 546 131 228 267 350 131 b 843 375 703 131 813 221 l 1014 375 b 546 -21 969 122 800 -21 "},"Ć":{"ha":1071,"x_min":0,"x_max":0,"o":"m 522 1019 l 433 1118 l 814 1432 l 904 1333 m 546 -21 b 57 489 247 -21 57 185 b 546 993 57 783 243 993 b 1014 597 799 993 972 846 l 843 597 b 546 843 813 750 700 843 b 228 489 350 843 228 706 b 546 131 228 267 350 131 b 843 375 703 131 813 221 l 1014 375 b 546 -21 969 122 800 -21 "},"Č":{"ha":1071,"x_min":0,"x_max":0,"o":"m 492 1051 l 240 1278 l 338 1369 l 544 1176 l 751 1369 l 849 1276 l 600 1051 m 546 -21 b 57 489 247 -21 57 185 b 546 993 57 783 243 993 b 1014 597 799 993 972 846 l 843 597 b 546 843 813 750 700 843 b 228 489 350 843 228 706 b 546 131 228 267 350 131 b 843 375 703 131 813 221 l 1014 375 b 546 -21 969 122 800 -21 "},"Ç":{"ha":1071,"x_min":0,"x_max":0,"o":"m 546 131 b 843 375 703 131 813 221 l 1014 375 b 608 -18 974 143 828 4 l 504 -314 l 376 -289 l 471 -17 b 57 489 215 15 57 211 b 546 993 57 783 243 993 b 1014 597 799 993 972 846 l 843 597 b 546 843 813 750 700 843 b 228 489 350 843 228 706 b 546 131 228 267 350 131 "},"Ċ":{"ha":1071,"x_min":0,"x_max":0,"o":"m 546 1046 b 444 1147 488 1046 444 1090 b 546 1247 444 1204 488 1247 b 647 1147 604 1247 647 1204 b 546 1046 647 1090 604 1046 m 546 -21 b 57 489 247 -21 57 185 b 546 993 57 783 243 993 b 1014 597 799 993 972 846 l 843 597 b 546 843 813 750 700 843 b 228 489 350 843 228 706 b 546 131 228 267 350 131 b 843 375 703 131 813 221 l 1014 375 b 546 -21 969 122 800 -21 "},"D":{"ha":999,"x_min":0,"x_max":0,"o":"m 101 0 l 101 972 l 451 972 b 942 492 740 972 942 775 b 451 0 942 201 740 0 m 268 150 l 463 150 b 769 492 643 150 769 290 b 463 822 769 682 643 822 l 268 822 "},"Ð":{"ha":1029,"x_min":0,"x_max":0,"o":"m 132 0 l 132 436 l -8 436 l -8 556 l 132 556 l 132 972 l 483 972 b 974 492 772 972 974 775 b 483 0 974 201 772 0 m 299 150 l 494 150 b 800 492 674 150 800 290 b 494 822 800 682 674 822 l 299 822 l 299 556 l 600 556 l 600 436 l 299 436 "},"Ď":{"ha":999,"x_min":0,"x_max":0,"o":"m 390 1051 l 139 1278 l 236 1369 l 443 1176 l 650 1369 l 747 1276 l 499 1051 m 101 0 l 101 972 l 451 972 b 942 492 740 972 942 775 b 451 0 942 201 740 0 m 268 150 l 463 150 b 769 492 643 150 769 290 b 463 822 769 682 643 822 l 268 822 "},"Đ":{"ha":1029,"x_min":0,"x_max":0,"o":"m 132 0 l 132 436 l -8 436 l -8 556 l 132 556 l 132 972 l 483 972 b 974 492 772 972 974 775 b 483 0 974 201 772 0 m 299 150 l 494 150 b 800 492 674 150 800 290 b 494 822 800 682 674 822 l 299 822 l 299 556 l 600 556 l 600 436 l 299 436 "},"E":{"ha":849,"x_min":0,"x_max":0,"o":"m 101 0 l 101 972 l 782 972 l 782 822 l 267 822 l 267 572 l 733 572 l 733 426 l 267 426 l 267 150 l 794 150 l 794 0 "},"É":{"ha":849,"x_min":0,"x_max":0,"o":"m 425 1019 l 336 1118 l 717 1432 l 807 1333 m 101 0 l 101 972 l 782 972 l 782 822 l 267 822 l 267 572 l 733 572 l 733 426 l 267 426 l 267 150 l 794 150 l 794 0 "},"Ě":{"ha":849,"x_min":0,"x_max":0,"o":"m 394 1051 l 143 1278 l 240 1369 l 447 1176 l 654 1369 l 751 1276 l 503 1051 m 101 0 l 101 972 l 782 972 l 782 822 l 267 822 l 267 572 l 733 572 l 733 426 l 267 426 l 267 150 l 794 150 l 794 0 "},"Ê":{"ha":849,"x_min":0,"x_max":0,"o":"m 240 1026 l 143 1118 l 394 1346 l 503 1346 l 751 1121 l 654 1026 l 447 1219 m 101 0 l 101 972 l 782 972 l 782 822 l 267 822 l 267 572 l 733 572 l 733 426 l 267 426 l 267 150 l 794 150 l 794 0 "},"Ë":{"ha":849,"x_min":0,"x_max":0,"o":"m 303 1046 b 201 1147 246 1046 201 1092 b 303 1247 201 1203 246 1247 b 403 1147 358 1247 403 1203 b 303 1046 403 1092 358 1046 m 596 1046 b 494 1147 540 1046 494 1092 b 596 1247 494 1203 540 1247 b 696 1147 651 1247 696 1203 b 596 1046 696 1092 651 1046 m 101 0 l 101 972 l 782 972 l 782 822 l 267 822 l 267 572 l 733 572 l 733 426 l 267 426 l 267 150 l 794 150 l 794 0 "},"Ė":{"ha":849,"x_min":0,"x_max":0,"o":"m 449 1046 b 347 1147 390 1046 347 1090 b 449 1247 347 1204 390 1247 b 550 1147 507 1247 550 1204 b 449 1046 550 1090 507 1046 m 101 0 l 101 972 l 782 972 l 782 822 l 267 822 l 267 572 l 733 572 l 733 426 l 267 426 l 267 150 l 794 150 l 794 0 "},"È":{"ha":849,"x_min":0,"x_max":0,"o":"m 471 1019 l 90 1333 l 179 1432 l 561 1118 m 101 0 l 101 972 l 782 972 l 782 822 l 267 822 l 267 572 l 733 572 l 733 426 l 267 426 l 267 150 l 794 150 l 794 0 "},"Ē":{"ha":849,"x_min":0,"x_max":0,"o":"m 178 1093 l 178 1222 l 719 1222 l 719 1093 m 101 0 l 101 972 l 782 972 l 782 822 l 267 822 l 267 572 l 733 572 l 733 426 l 267 426 l 267 150 l 794 150 l 794 0 "},"Ę":{"ha":849,"x_min":0,"x_max":0,"o":"m 803 -282 b 697 -300 765 -294 732 -300 b 532 -174 596 -300 532 -250 b 642 0 532 -112 572 -47 l 101 0 l 101 972 l 782 972 l 782 822 l 267 822 l 267 572 l 733 572 l 733 426 l 267 426 l 267 150 l 794 150 l 794 0 l 772 0 b 663 -125 701 -39 663 -85 b 717 -168 663 -154 685 -168 b 782 -154 738 -168 757 -162 "},"F":{"ha":838,"x_min":0,"x_max":0,"o":"m 101 0 l 101 972 l 790 972 l 790 822 l 268 822 l 268 554 l 753 554 l 753 404 l 268 404 l 268 0 "},"G":{"ha":1094,"x_min":0,"x_max":0,"o":"m 521 -21 b 57 489 249 -21 57 179 b 544 993 57 783 243 993 b 1013 597 797 993 971 843 l 842 597 b 544 843 811 750 699 843 b 228 489 350 843 228 707 b 538 131 228 268 351 131 b 788 368 689 131 788 229 l 494 368 l 494 508 l 826 508 b 1019 328 951 508 1019 446 l 1019 0 l 872 0 l 872 297 l 869 297 b 521 -21 850 103 722 -21 "},"Ğ":{"ha":1094,"x_min":0,"x_max":0,"o":"m 544 1063 b 297 1283 399 1063 297 1153 l 297 1296 l 438 1296 l 438 1283 b 544 1183 438 1224 482 1183 b 649 1283 606 1183 649 1224 l 649 1296 l 788 1296 l 788 1283 b 544 1063 788 1153 688 1063 m 521 -21 b 57 489 249 -21 57 179 b 544 993 57 783 243 993 b 1013 597 797 993 971 843 l 842 597 b 544 843 811 750 699 843 b 228 489 350 843 228 707 b 538 131 228 268 351 131 b 788 368 689 131 788 229 l 494 368 l 494 508 l 826 508 b 1019 328 951 508 1019 446 l 1019 0 l 872 0 l 872 297 l 869 297 b 521 -21 850 103 722 -21 "},"Ģ":{"ha":1094,"x_min":0,"x_max":0,"o":"m 521 -21 b 57 489 249 -21 57 179 b 544 993 57 783 243 993 b 1013 597 797 993 971 843 l 842 597 b 544 843 811 750 699 843 b 228 489 350 843 228 707 b 538 131 228 268 351 131 b 788 368 689 131 788 229 l 494 368 l 494 508 l 826 508 b 1019 328 951 508 1019 446 l 1019 0 l 872 0 l 872 297 l 869 297 b 521 -21 850 103 722 -21 m 458 -554 l 333 -515 l 483 -42 l 615 -82 "},"Ġ":{"ha":1094,"x_min":0,"x_max":0,"o":"m 544 1046 b 443 1147 486 1046 443 1090 b 544 1247 443 1204 486 1247 b 646 1147 603 1247 646 1204 b 544 1046 646 1090 603 1046 m 521 -21 b 57 489 249 -21 57 179 b 544 993 57 783 243 993 b 1013 597 797 993 971 843 l 842 597 b 544 843 811 750 699 843 b 228 489 350 843 228 707 b 538 131 228 268 351 131 b 788 368 689 131 788 229 l 494 368 l 494 508 l 826 508 b 1019 328 951 508 1019 446 l 1019 0 l 872 0 l 872 297 l 869 297 b 521 -21 850 103 722 -21 "},"H":{"ha":1068,"x_min":0,"x_max":0,"o":"m 101 0 l 101 972 l 268 972 l 268 572 l 801 572 l 801 972 l 968 972 l 968 0 l 801 0 l 801 422 l 268 422 l 268 0 "},"Ħ":{"ha":1113,"x_min":0,"x_max":0,"o":"m 124 0 l 124 728 l -32 728 l -32 847 l 124 847 l 124 972 l 290 972 l 290 847 l 824 847 l 824 972 l 990 972 l 990 847 l 1144 847 l 1144 728 l 990 728 l 990 0 l 824 0 l 824 422 l 290 422 l 290 0 m 290 572 l 824 572 l 824 728 l 290 728 "},"I":{"ha":368,"x_min":0,"x_max":0,"o":"m 101 0 l 101 972 l 268 972 l 268 0 "},"Í":{"ha":368,"x_min":0,"x_max":0,"o":"m 161 1019 l 72 1118 l 453 1432 l 543 1333 m 101 0 l 101 972 l 268 972 l 268 0 "},"Î":{"ha":368,"x_min":0,"x_max":0,"o":"m -24 1026 l -121 1118 l 131 1346 l 239 1346 l 488 1121 l 390 1026 l 183 1219 m 101 0 l 101 972 l 268 972 l 268 0 "},"Ï":{"ha":368,"x_min":0,"x_max":0,"o":"m 38 1046 b -65 1147 -19 1046 -65 1092 b 38 1247 -65 1203 -19 1247 b 138 1147 93 1247 138 1203 b 38 1046 138 1092 93 1046 m 331 1046 b 229 1147 275 1046 229 1092 b 331 1247 229 1203 275 1247 b 431 1147 386 1247 431 1203 b 331 1046 431 1092 386 1046 m 101 0 l 101 972 l 268 972 l 268 0 "},"İ":{"ha":368,"x_min":0,"x_max":0,"o":"m 185 1046 b 83 1147 126 1046 83 1090 b 185 1247 83 1204 126 1247 b 286 1147 243 1247 286 1204 b 185 1046 286 1090 243 1046 m 101 0 l 101 972 l 268 972 l 268 0 "},"Ì":{"ha":368,"x_min":0,"x_max":0,"o":"m 207 1019 l -174 1333 l -85 1432 l 297 1118 m 101 0 l 101 972 l 268 972 l 268 0 "},"Ī":{"ha":368,"x_min":0,"x_max":0,"o":"m -86 1093 l -86 1222 l 456 1222 l 456 1093 m 101 0 l 101 972 l 268 972 l 268 0 "},"Į":{"ha":368,"x_min":0,"x_max":0,"o":"m 282 -282 b 176 -300 244 -294 211 -300 b 11 -174 75 -300 11 -250 b 121 0 11 -112 51 -47 l 101 0 l 101 972 l 268 972 l 268 0 l 251 0 b 142 -125 181 -39 142 -85 b 196 -168 142 -154 164 -168 b 261 -154 217 -168 236 -162 "},"Ǐ":{"ha":368,"x_min":0,"x_max":0,"o":"m 131 1051 l -121 1278 l -24 1369 l 183 1176 l 390 1369 l 488 1276 l 239 1051 m 101 0 l 101 972 l 268 972 l 268 0 "},"J":{"ha":818,"x_min":0,"x_max":0,"o":"m 392 -21 b 50 265 190 -21 50 97 l 50 403 l 215 403 l 215 267 b 389 131 215 186 286 131 b 558 279 489 131 558 192 l 558 972 l 725 972 l 725 276 b 392 -21 725 101 589 -21 "},"K":{"ha":967,"x_min":0,"x_max":0,"o":"m 101 0 l 101 972 l 268 972 l 268 496 l 710 972 l 921 972 l 540 574 l 949 0 l 744 0 l 425 453 l 268 289 l 268 0 "},"Ķ":{"ha":967,"x_min":0,"x_max":0,"o":"m 101 0 l 101 972 l 268 972 l 268 496 l 710 972 l 921 972 l 540 574 l 949 0 l 744 0 l 425 453 l 268 289 l 268 0 m 396 -554 l 271 -515 l 421 -42 l 553 -82 "},"L":{"ha":810,"x_min":0,"x_max":0,"o":"m 101 0 l 101 972 l 268 972 l 268 150 l 764 150 l 764 0 "},"Ĺ":{"ha":810,"x_min":0,"x_max":0,"o":"m 161 1019 l 72 1118 l 453 1432 l 543 1333 m 101 0 l 101 972 l 268 972 l 268 150 l 764 150 l 764 0 "},"Ľ":{"ha":810,"x_min":0,"x_max":0,"o":"m 406 589 l 406 1042 l 540 1042 l 540 589 m 101 0 l 101 972 l 268 972 l 268 150 l 764 150 l 764 0 "},"Ļ":{"ha":810,"x_min":0,"x_max":0,"o":"m 101 0 l 101 972 l 268 972 l 268 150 l 764 150 l 764 0 m 360 -554 l 235 -515 l 385 -42 l 517 -82 "},"Ł":{"ha":889,"x_min":0,"x_max":0,"o":"m 179 0 l 179 431 l 39 346 l -15 446 l 179 565 l 179 972 l 346 972 l 346 668 l 526 779 l 582 676 l 346 533 l 346 150 l 843 150 l 843 0 "},"M":{"ha":1221,"x_min":0,"x_max":0,"o":"m 101 0 l 101 972 l 307 972 l 611 200 l 914 972 l 1119 972 l 1119 0 l 953 0 l 953 685 l 683 0 l 538 0 l 268 683 l 268 0 "},"N":{"ha":1032,"x_min":0,"x_max":0,"o":"m 101 0 l 101 972 l 282 972 l 764 240 l 764 972 l 931 972 l 931 0 l 750 0 l 268 732 l 268 0 "},"Ń":{"ha":1032,"x_min":0,"x_max":0,"o":"m 493 1019 l 404 1118 l 785 1432 l 875 1333 m 101 0 l 101 972 l 282 972 l 764 240 l 764 972 l 931 972 l 931 0 l 750 0 l 268 732 l 268 0 "},"Ň":{"ha":1032,"x_min":0,"x_max":0,"o":"m 463 1051 l 211 1278 l 308 1369 l 515 1176 l 722 1369 l 819 1276 l 571 1051 m 101 0 l 101 972 l 282 972 l 764 240 l 764 972 l 931 972 l 931 0 l 750 0 l 268 732 l 268 0 "},"Ņ":{"ha":1032,"x_min":0,"x_max":0,"o":"m 101 0 l 101 972 l 282 972 l 764 240 l 764 972 l 931 972 l 931 0 l 750 0 l 268 732 l 268 0 m 433 -554 l 308 -515 l 458 -42 l 590 -82 "},"Ŋ":{"ha":1032,"x_min":0,"x_max":0,"o":"m 569 -278 l 569 -142 l 674 -142 b 767 -44 735 -142 767 -107 l 767 0 l 750 0 l 268 732 l 268 0 l 101 0 l 101 972 l 282 972 l 764 240 l 764 972 l 931 972 l 931 -54 b 685 -278 931 -200 844 -278 "},"Ñ":{"ha":1032,"x_min":0,"x_max":0,"o":"m 650 1072 b 433 1171 553 1072 483 1171 b 381 1081 401 1171 381 1133 l 250 1081 b 397 1294 250 1210 308 1294 b 610 1194 492 1294 557 1194 b 654 1283 638 1194 654 1222 l 782 1283 b 650 1072 782 1146 735 1072 m 101 0 l 101 972 l 282 972 l 764 240 l 764 972 l 931 972 l 931 0 l 750 0 l 268 732 l 268 0 "},"O":{"ha":1085,"x_min":0,"x_max":0,"o":"m 542 -21 b 57 489 254 -21 57 179 b 542 993 57 783 243 993 b 1029 489 831 993 1029 794 b 542 -21 1029 192 842 -21 m 542 131 b 860 489 736 131 860 269 b 542 843 860 706 736 843 b 226 489 349 843 226 706 b 542 131 226 269 349 131 "},"Ó":{"ha":1085,"x_min":0,"x_max":0,"o":"m 518 1019 l 429 1118 l 810 1432 l 900 1333 m 542 -21 b 57 489 254 -21 57 179 b 542 993 57 783 243 993 b 1029 489 831 993 1029 794 b 542 -21 1029 192 842 -21 m 542 131 b 860 489 736 131 860 269 b 542 843 860 706 736 843 b 226 489 349 843 226 706 b 542 131 226 269 349 131 "},"Ô":{"ha":1085,"x_min":0,"x_max":0,"o":"m 333 1026 l 236 1118 l 488 1346 l 596 1346 l 844 1121 l 747 1026 l 540 1219 m 542 -21 b 57 489 254 -21 57 179 b 542 993 57 783 243 993 b 1029 489 831 993 1029 794 b 542 -21 1029 192 842 -21 m 542 131 b 860 489 736 131 860 269 b 542 843 860 706 736 843 b 226 489 349 843 226 706 b 542 131 226 269 349 131 "},"Ö":{"ha":1085,"x_min":0,"x_max":0,"o":"m 396 1046 b 294 1147 339 1046 294 1092 b 396 1247 294 1203 339 1247 b 496 1147 451 1247 496 1203 b 396 1046 496 1092 451 1046 m 689 1046 b 588 1147 633 1046 588 1092 b 689 1247 588 1203 633 1247 b 789 1147 744 1247 789 1203 b 689 1046 789 1092 744 1046 m 542 -21 b 57 489 254 -21 57 179 b 542 993 57 783 243 993 b 1029 489 831 993 1029 794 b 542 -21 1029 192 842 -21 m 542 131 b 860 489 736 131 860 269 b 542 843 860 706 736 843 b 226 489 349 843 226 706 b 542 131 226 269 349 131 "},"Ò":{"ha":1085,"x_min":0,"x_max":0,"o":"m 564 1019 l 183 1333 l 272 1432 l 654 1118 m 542 -21 b 57 489 254 -21 57 179 b 542 993 57 783 243 993 b 1029 489 831 993 1029 794 b 542 -21 1029 192 842 -21 m 542 131 b 860 489 736 131 860 269 b 542 843 860 706 736 843 b 226 489 349 843 226 706 b 542 131 226 269 349 131 "},"Ő":{"ha":1085,"x_min":0,"x_max":0,"o":"m 475 1043 l 356 1110 l 665 1494 l 781 1429 m 685 1006 l 565 1072 l 874 1458 l 989 1394 m 542 -21 b 57 489 254 -21 57 179 b 542 993 57 783 243 993 b 1029 489 831 993 1029 794 b 542 -21 1029 192 842 -21 m 542 131 b 860 489 736 131 860 269 b 542 843 860 706 736 843 b 226 489 349 843 226 706 b 542 131 226 269 349 131 "},"Ō":{"ha":1085,"x_min":0,"x_max":0,"o":"m 271 1093 l 271 1222 l 813 1222 l 813 1093 m 542 -21 b 57 489 254 -21 57 179 b 542 993 57 783 243 993 b 1029 489 831 993 1029 794 b 542 -21 1029 192 842 -21 m 542 131 b 860 489 736 131 860 269 b 542 843 860 706 736 843 b 226 489 349 843 226 706 b 542 131 226 269 349 131 "},"Ø":{"ha":1085,"x_min":0,"x_max":0,"o":"m 893 857 b 1029 489 979 768 1029 642 b 542 -21 1029 192 842 -21 b 264 57 435 -21 340 7 l 147 -90 l 72 -33 l 192 118 b 57 489 106 207 57 335 b 542 993 57 783 243 993 b 819 915 649 993 743 965 l 939 1067 l 1014 1010 m 226 489 b 294 249 226 392 250 310 l 722 792 b 542 843 674 825 613 843 b 226 489 349 843 226 706 m 542 131 b 860 489 736 131 860 269 b 790 726 860 586 835 667 l 363 182 b 542 131 411 149 472 131 "},"Ǒ":{"ha":1085,"x_min":0,"x_max":0,"o":"m 488 1051 l 236 1278 l 333 1369 l 540 1176 l 747 1369 l 844 1276 l 596 1051 m 542 -21 b 57 489 254 -21 57 179 b 542 993 57 783 243 993 b 1029 489 831 993 1029 794 b 542 -21 1029 192 842 -21 m 542 131 b 860 489 736 131 860 269 b 542 843 860 706 736 843 b 226 489 349 843 226 706 b 542 131 226 269 349 131 "},"Õ":{"ha":1085,"x_min":0,"x_max":0,"o":"m 675 1072 b 458 1171 578 1072 508 1171 b 406 1081 426 1171 406 1133 l 275 1081 b 422 1294 275 1210 333 1294 b 635 1194 517 1294 582 1194 b 679 1283 663 1194 679 1222 l 807 1283 b 675 1072 807 1146 760 1072 m 542 -21 b 57 489 254 -21 57 179 b 542 993 57 783 243 993 b 1029 489 831 993 1029 794 b 542 -21 1029 192 842 -21 m 542 131 b 860 489 736 131 860 269 b 542 843 860 706 736 843 b 226 489 349 843 226 706 b 542 131 226 269 349 131 "},"Œ":{"ha":1613,"x_min":0,"x_max":0,"o":"m 542 -21 b 57 489 254 -21 57 179 b 542 993 57 783 243 993 b 865 850 675 993 788 940 l 865 972 l 1546 972 l 1546 822 l 1031 822 l 1031 572 l 1497 572 l 1497 426 l 1031 426 l 1031 150 l 1558 150 l 1558 0 l 865 0 l 865 126 b 542 -21 789 33 678 -21 m 542 131 b 860 489 736 131 860 269 b 542 843 860 706 736 843 b 226 489 349 843 226 706 b 542 131 226 269 349 131 "},"P":{"ha":963,"x_min":0,"x_max":0,"o":"m 101 0 l 101 972 l 594 972 b 914 667 793 972 914 840 b 594 351 914 471 778 351 l 268 351 l 268 0 m 268 501 l 586 501 b 744 667 690 501 744 579 b 586 822 744 758 682 822 l 268 822 "},"Þ":{"ha":963,"x_min":0,"x_max":0,"o":"m 101 0 l 101 972 l 268 972 l 268 803 l 594 803 b 914 496 792 803 914 671 b 594 181 914 301 776 181 l 268 181 l 268 0 m 268 331 l 586 331 b 744 496 690 331 744 408 b 586 653 744 588 681 653 l 268 653 "},"Q":{"ha":1085,"x_min":0,"x_max":0,"o":"m 817 -192 l 701 3 b 542 -21 653 -12 599 -21 b 57 489 254 -21 57 179 b 542 993 57 783 243 993 b 1029 489 831 993 1029 794 b 826 63 1029 303 956 150 l 939 -129 m 542 131 b 619 139 569 131 596 133 l 488 363 l 611 424 l 743 200 b 860 489 818 261 860 361 b 542 843 860 706 736 843 b 226 489 349 843 226 706 b 542 131 226 269 349 131 "},"R":{"ha":965,"x_min":0,"x_max":0,"o":"m 101 0 l 101 972 l 576 972 b 889 697 761 972 889 860 b 675 446 889 578 804 479 b 808 335 739 433 785 394 l 933 0 l 756 0 l 643 307 b 553 367 629 346 597 367 l 268 367 l 268 0 m 268 514 l 568 514 b 724 672 671 514 724 588 b 568 822 724 761 663 822 l 268 822 "},"Ŕ":{"ha":965,"x_min":0,"x_max":0,"o":"m 422 1019 l 333 1118 l 714 1432 l 804 1333 m 101 0 l 101 972 l 576 972 b 889 697 761 972 889 860 b 675 446 889 578 804 479 b 808 335 739 433 785 394 l 933 0 l 756 0 l 643 307 b 553 367 629 346 597 367 l 268 367 l 268 0 m 268 514 l 568 514 b 724 672 671 514 724 588 b 568 822 724 761 663 822 l 268 822 "},"Ř":{"ha":965,"x_min":0,"x_max":0,"o":"m 392 1051 l 140 1278 l 238 1369 l 444 1176 l 651 1369 l 749 1276 l 500 1051 m 101 0 l 101 972 l 576 972 b 889 697 761 972 889 860 b 675 446 889 578 804 479 b 808 335 739 433 785 394 l 933 0 l 756 0 l 643 307 b 553 367 629 346 597 367 l 268 367 l 268 0 m 268 514 l 568 514 b 724 672 671 514 724 588 b 568 822 724 761 663 822 l 268 822 "},"Ŗ":{"ha":965,"x_min":0,"x_max":0,"o":"m 101 0 l 101 972 l 576 972 b 889 697 761 972 889 860 b 675 446 889 578 804 479 b 808 335 739 433 785 394 l 933 0 l 756 0 l 643 307 b 553 367 629 346 597 367 l 268 367 l 268 0 m 268 514 l 568 514 b 724 672 671 514 724 588 b 568 822 724 761 663 822 l 268 822 m 394 -554 l 269 -515 l 419 -42 l 551 -82 "},"S":{"ha":908,"x_min":0,"x_max":0,"o":"m 499 -21 b 60 300 243 -21 72 107 l 231 300 b 499 128 246 194 343 128 b 692 258 625 128 692 176 b 538 394 692 335 632 365 l 379 442 b 88 717 265 476 88 526 b 435 993 88 876 219 993 b 832 661 669 993 819 867 l 663 661 b 429 844 656 771 575 844 b 253 725 322 844 253 800 b 432 589 253 640 338 619 l 579 543 b 861 267 717 500 861 450 b 499 -21 861 90 721 -21 "},"Ś":{"ha":908,"x_min":0,"x_max":0,"o":"m 428 1019 l 339 1118 l 719 1432 l 810 1333 m 499 -21 b 60 300 243 -21 72 107 l 231 300 b 499 128 246 194 343 128 b 692 258 625 128 692 176 b 538 394 692 335 632 365 l 379 442 b 88 717 265 476 88 526 b 435 993 88 876 219 993 b 832 661 669 993 819 867 l 663 661 b 429 844 656 771 575 844 b 253 725 322 844 253 800 b 432 589 253 640 338 619 l 579 543 b 861 267 717 500 861 450 b 499 -21 861 90 721 -21 "},"Š":{"ha":908,"x_min":0,"x_max":0,"o":"m 397 1051 l 146 1278 l 243 1369 l 450 1176 l 657 1369 l 754 1276 l 506 1051 m 499 -21 b 60 300 243 -21 72 107 l 231 300 b 499 128 246 194 343 128 b 692 258 625 128 692 176 b 538 394 692 335 632 365 l 379 442 b 88 717 265 476 88 526 b 435 993 88 876 219 993 b 832 661 669 993 819 867 l 663 661 b 429 844 656 771 575 844 b 253 725 322 844 253 800 b 432 589 253 640 338 619 l 579 543 b 861 267 717 500 861 450 b 499 -21 861 90 721 -21 "},"Ş":{"ha":908,"x_min":0,"x_max":0,"o":"m 861 267 b 538 -19 861 101 738 -7 l 435 -314 l 307 -289 l 403 -14 b 60 300 201 14 71 132 l 231 300 b 499 128 246 194 343 128 b 692 258 625 128 692 176 b 538 394 692 335 632 365 l 379 442 b 88 717 265 476 88 526 b 435 993 88 876 219 993 b 832 661 669 993 819 867 l 663 661 b 429 844 656 771 575 844 b 253 725 322 844 253 800 b 432 589 253 640 338 619 l 579 543 b 861 267 717 500 861 450 "},"Ș":{"ha":908,"x_min":0,"x_max":0,"o":"m 499 -21 b 60 300 243 -21 72 107 l 231 300 b 499 128 246 194 343 128 b 692 258 625 128 692 176 b 538 394 692 335 632 365 l 379 442 b 88 717 265 476 88 526 b 435 993 88 876 219 993 b 832 661 669 993 819 867 l 663 661 b 429 844 656 771 575 844 b 253 725 322 844 253 800 b 432 589 253 640 338 619 l 579 543 b 861 267 717 500 861 450 b 499 -21 861 90 721 -21 m 393 -554 l 268 -515 l 418 -42 l 550 -82 "},"ẞ":{"ha":982,"x_min":0,"x_max":0,"o":"m 588 -21 b 369 18 508 -21 431 -3 l 369 165 b 572 121 447 135 517 121 b 756 281 685 121 756 183 b 468 486 756 403 642 482 l 468 593 l 658 824 l 364 824 b 267 729 300 824 267 790 l 267 0 l 101 0 l 101 746 b 351 972 101 893 189 972 l 857 972 l 857 835 l 639 568 b 922 268 810 540 922 429 b 588 -21 922 97 792 -21 "},"T":{"ha":896,"x_min":0,"x_max":0,"o":"m 365 0 l 365 822 l 40 822 l 40 972 l 856 972 l 856 822 l 532 822 l 532 0 "},"Ŧ":{"ha":896,"x_min":0,"x_max":0,"o":"m 365 0 l 365 460 l 103 460 l 103 578 l 365 578 l 365 822 l 40 822 l 40 972 l 856 972 l 856 822 l 532 822 l 532 578 l 793 578 l 793 460 l 532 460 l 532 0 "},"Ť":{"ha":896,"x_min":0,"x_max":0,"o":"m 394 1051 l 143 1278 l 240 1369 l 447 1176 l 654 1369 l 751 1276 l 503 1051 m 365 0 l 365 822 l 40 822 l 40 972 l 856 972 l 856 822 l 532 822 l 532 0 "},"Ţ":{"ha":896,"x_min":0,"x_max":0,"o":"m 40 972 l 856 972 l 856 822 l 532 822 l 532 0 l 517 0 l 407 -314 l 279 -289 l 379 0 l 365 0 l 365 822 l 40 822 "},"Ț":{"ha":896,"x_min":0,"x_max":0,"o":"m 365 0 l 365 822 l 40 822 l 40 972 l 856 972 l 856 822 l 532 822 l 532 0 m 365 -554 l 240 -515 l 390 -42 l 522 -82 "},"U":{"ha":996,"x_min":0,"x_max":0,"o":"m 499 -21 b 93 324 249 -21 93 126 l 93 972 l 260 972 l 260 328 b 497 132 260 203 361 132 b 736 328 635 132 736 203 l 736 972 l 903 972 l 903 324 b 499 -21 903 129 751 -21 "},"Ú":{"ha":996,"x_min":0,"x_max":0,"o":"m 475 1019 l 386 1118 l 767 1432 l 857 1333 m 499 -21 b 93 324 249 -21 93 126 l 93 972 l 260 972 l 260 328 b 497 132 260 203 361 132 b 736 328 635 132 736 203 l 736 972 l 903 972 l 903 324 b 499 -21 903 129 751 -21 "},"Ŭ":{"ha":996,"x_min":0,"x_max":0,"o":"m 497 1063 b 250 1283 351 1063 250 1153 l 250 1296 l 390 1296 l 390 1283 b 497 1183 390 1224 435 1183 b 601 1283 558 1183 601 1224 l 601 1296 l 740 1296 l 740 1283 b 497 1063 740 1153 640 1063 m 499 -21 b 93 324 249 -21 93 126 l 93 972 l 260 972 l 260 328 b 497 132 260 203 361 132 b 736 328 635 132 736 203 l 736 972 l 903 972 l 903 324 b 499 -21 903 129 751 -21 "},"Û":{"ha":996,"x_min":0,"x_max":0,"o":"m 290 1026 l 193 1118 l 444 1346 l 553 1346 l 801 1121 l 704 1026 l 497 1219 m 499 -21 b 93 324 249 -21 93 126 l 93 972 l 260 972 l 260 328 b 497 132 260 203 361 132 b 736 328 635 132 736 203 l 736 972 l 903 972 l 903 324 b 499 -21 903 129 751 -21 "},"Ü":{"ha":996,"x_min":0,"x_max":0,"o":"m 351 1046 b 250 1147 294 1046 250 1092 b 351 1247 250 1203 294 1247 b 451 1147 407 1247 451 1203 b 351 1046 451 1092 407 1046 m 644 1046 b 543 1147 589 1046 543 1092 b 644 1247 543 1203 589 1247 b 744 1147 700 1247 744 1203 b 644 1046 744 1092 700 1046 m 499 -21 b 93 324 249 -21 93 126 l 93 972 l 260 972 l 260 328 b 497 132 260 203 361 132 b 736 328 635 132 736 203 l 736 972 l 903 972 l 903 324 b 499 -21 903 129 751 -21 "},"Ù":{"ha":996,"x_min":0,"x_max":0,"o":"m 521 1019 l 140 1333 l 229 1432 l 611 1118 m 499 -21 b 93 324 249 -21 93 126 l 93 972 l 260 972 l 260 328 b 497 132 260 203 361 132 b 736 328 635 132 736 203 l 736 972 l 903 972 l 903 324 b 499 -21 903 129 751 -21 "},"Ű":{"ha":996,"x_min":0,"x_max":0,"o":"m 431 1043 l 311 1110 l 621 1494 l 736 1429 m 640 1006 l 521 1072 l 829 1458 l 944 1394 m 499 -21 b 93 324 249 -21 93 126 l 93 972 l 260 972 l 260 328 b 497 132 260 203 361 132 b 736 328 635 132 736 203 l 736 972 l 903 972 l 903 324 b 499 -21 903 129 751 -21 "},"Ū":{"ha":996,"x_min":0,"x_max":0,"o":"m 228 1093 l 228 1222 l 769 1222 l 769 1093 m 499 -21 b 93 324 249 -21 93 126 l 93 972 l 260 972 l 260 328 b 497 132 260 203 361 132 b 736 328 635 132 736 203 l 736 972 l 903 972 l 903 324 b 499 -21 903 129 751 -21 "},"Ų":{"ha":996,"x_min":0,"x_max":0,"o":"m 736 972 l 903 972 l 903 324 b 704 19 903 190 831 76 b 608 -97 642 -17 608 -60 b 663 -140 608 -126 631 -140 b 728 -126 683 -140 703 -135 l 749 -254 b 643 -272 711 -267 678 -272 b 478 -146 542 -272 478 -222 b 532 -19 478 -104 497 -58 b 499 -21 521 -21 510 -21 b 93 324 249 -21 93 126 l 93 972 l 260 972 l 260 328 b 497 132 260 203 361 132 b 736 328 635 132 736 203 "},"Ů":{"ha":996,"x_min":0,"x_max":0,"o":"m 499 1024 b 338 1176 407 1024 338 1090 b 499 1329 338 1264 407 1329 b 660 1176 590 1329 660 1264 b 499 1024 660 1090 590 1024 m 499 1108 b 567 1176 542 1108 567 1140 b 499 1244 567 1214 542 1244 b 431 1176 456 1244 431 1214 b 499 1108 431 1140 456 1108 m 499 -21 b 93 324 249 -21 93 126 l 93 972 l 260 972 l 260 328 b 497 132 260 203 361 132 b 736 328 635 132 736 203 l 736 972 l 903 972 l 903 324 b 499 -21 903 129 751 -21 "},"Ǔ":{"ha":996,"x_min":0,"x_max":0,"o":"m 444 1051 l 193 1278 l 290 1369 l 497 1176 l 704 1369 l 801 1276 l 553 1051 m 499 -21 b 93 324 249 -21 93 126 l 93 972 l 260 972 l 260 328 b 497 132 260 203 361 132 b 736 328 635 132 736 203 l 736 972 l 903 972 l 903 324 b 499 -21 903 129 751 -21 "},"Ǘ":{"ha":996,"x_min":0,"x_max":0,"o":"m 475 1282 l 386 1381 l 767 1694 l 857 1596 m 351 1046 b 250 1147 294 1046 250 1092 b 351 1247 250 1203 294 1247 b 451 1147 407 1247 451 1203 b 351 1046 451 1092 407 1046 m 644 1046 b 543 1147 589 1046 543 1092 b 644 1247 543 1203 589 1247 b 744 1147 700 1247 744 1203 b 644 1046 744 1092 700 1046 m 499 -21 b 93 324 249 -21 93 126 l 93 972 l 260 972 l 260 328 b 497 132 260 203 361 132 b 736 328 635 132 736 203 l 736 972 l 903 972 l 903 324 b 499 -21 903 129 751 -21 "},"Ǚ":{"ha":996,"x_min":0,"x_max":0,"o":"m 444 1314 l 193 1540 l 290 1632 l 497 1439 l 704 1632 l 801 1539 l 553 1314 m 351 1046 b 250 1147 294 1046 250 1092 b 351 1247 250 1203 294 1247 b 451 1147 407 1247 451 1203 b 351 1046 451 1092 407 1046 m 644 1046 b 543 1147 589 1046 543 1092 b 644 1247 543 1203 589 1247 b 744 1147 700 1247 744 1203 b 644 1046 744 1092 700 1046 m 499 -21 b 93 324 249 -21 93 126 l 93 972 l 260 972 l 260 328 b 497 132 260 203 361 132 b 736 328 635 132 736 203 l 736 972 l 903 972 l 903 324 b 499 -21 903 129 751 -21 "},"Ǜ":{"ha":996,"x_min":0,"x_max":0,"o":"m 521 1282 l 140 1596 l 229 1694 l 611 1381 m 351 1046 b 250 1147 294 1046 250 1092 b 351 1247 250 1203 294 1247 b 451 1147 407 1247 451 1203 b 351 1046 451 1092 407 1046 m 644 1046 b 543 1147 589 1046 543 1092 b 644 1247 543 1203 589 1247 b 744 1147 700 1247 744 1203 b 644 1046 744 1092 700 1046 m 499 -21 b 93 324 249 -21 93 126 l 93 972 l 260 972 l 260 328 b 497 132 260 203 361 132 b 736 328 635 132 736 203 l 736 972 l 903 972 l 903 324 b 499 -21 903 129 751 -21 "},"Ǖ":{"ha":996,"x_min":0,"x_max":0,"o":"m 228 1356 l 228 1485 l 769 1485 l 769 1356 m 351 1046 b 250 1147 294 1046 250 1092 b 351 1247 250 1203 294 1247 b 451 1147 407 1247 451 1203 b 351 1046 451 1092 407 1046 m 644 1046 b 543 1147 589 1046 543 1092 b 644 1247 543 1203 589 1247 b 744 1147 700 1247 744 1203 b 644 1046 744 1092 700 1046 m 499 -21 b 93 324 249 -21 93 126 l 93 972 l 260 972 l 260 328 b 497 132 260 203 361 132 b 736 328 635 132 736 203 l 736 972 l 903 972 l 903 324 b 499 -21 903 129 751 -21 "},"V":{"ha":956,"x_min":0,"x_max":0,"o":"m 396 0 l 18 972 l 197 972 l 483 228 l 760 972 l 938 972 l 571 0 "},"W":{"ha":1343,"x_min":0,"x_max":0,"o":"m 293 0 l 18 972 l 192 972 l 394 243 l 593 972 l 749 972 l 949 242 l 1151 972 l 1325 972 l 1050 0 l 868 0 l 671 726 l 475 0 "},"Ẃ":{"ha":1343,"x_min":0,"x_max":0,"o":"m 649 1019 l 560 1118 l 940 1432 l 1031 1333 m 293 0 l 18 972 l 192 972 l 394 243 l 593 972 l 749 972 l 949 242 l 1151 972 l 1325 972 l 1050 0 l 868 0 l 671 726 l 475 0 "},"Ŵ":{"ha":1343,"x_min":0,"x_max":0,"o":"m 464 1026 l 367 1118 l 618 1346 l 726 1346 l 975 1121 l 878 1026 l 671 1219 m 293 0 l 18 972 l 192 972 l 394 243 l 593 972 l 749 972 l 949 242 l 1151 972 l 1325 972 l 1050 0 l 868 0 l 671 726 l 475 0 "},"Ẅ":{"ha":1343,"x_min":0,"x_max":0,"o":"m 525 1046 b 424 1147 468 1046 424 1092 b 525 1247 424 1203 468 1247 b 625 1147 581 1247 625 1203 b 525 1046 625 1092 581 1046 m 818 1046 b 717 1147 763 1046 717 1092 b 818 1247 717 1203 763 1247 b 918 1147 874 1247 918 1203 b 818 1046 918 1092 874 1046 m 293 0 l 18 972 l 192 972 l 394 243 l 593 972 l 749 972 l 949 242 l 1151 972 l 1325 972 l 1050 0 l 868 0 l 671 726 l 475 0 "},"Ẁ":{"ha":1343,"x_min":0,"x_max":0,"o":"m 694 1019 l 314 1333 l 403 1432 l 785 1118 m 293 0 l 18 972 l 192 972 l 394 243 l 593 972 l 749 972 l 949 242 l 1151 972 l 1325 972 l 1050 0 l 868 0 l 671 726 l 475 0 "},"X":{"ha":993,"x_min":0,"x_max":0,"o":"m 32 0 l 397 488 l 42 972 l 243 972 l 499 621 l 753 972 l 953 972 l 599 489 l 963 0 l 761 0 l 499 357 l 233 0 "},"Y":{"ha":933,"x_min":0,"x_max":0,"o":"m 382 0 l 382 415 l 14 972 l 207 972 l 467 574 l 726 972 l 919 972 l 549 415 l 549 0 "},"Ý":{"ha":933,"x_min":0,"x_max":0,"o":"m 443 1019 l 354 1118 l 735 1432 l 825 1333 m 382 0 l 382 415 l 14 972 l 207 972 l 467 574 l 726 972 l 919 972 l 549 415 l 549 0 "},"Ŷ":{"ha":933,"x_min":0,"x_max":0,"o":"m 250 1038 l 153 1129 l 414 1365 l 522 1365 l 781 1132 l 682 1038 l 467 1239 m 382 0 l 382 415 l 14 972 l 207 972 l 467 574 l 726 972 l 919 972 l 549 415 l 549 0 "},"Ÿ":{"ha":933,"x_min":0,"x_max":0,"o":"m 321 1046 b 219 1147 264 1046 219 1092 b 321 1247 219 1203 264 1247 b 421 1147 376 1247 421 1203 b 321 1046 421 1092 376 1046 m 614 1046 b 513 1147 558 1046 513 1092 b 614 1247 513 1203 558 1247 b 714 1147 669 1247 714 1203 b 614 1046 714 1092 669 1046 m 382 0 l 382 415 l 14 972 l 207 972 l 467 574 l 726 972 l 919 972 l 549 415 l 549 0 "},"Ỳ":{"ha":933,"x_min":0,"x_max":0,"o":"m 489 1019 l 108 1333 l 197 1432 l 579 1118 m 382 0 l 382 415 l 14 972 l 207 972 l 467 574 l 726 972 l 919 972 l 549 415 l 549 0 "},"Z":{"ha":844,"x_min":0,"x_max":0,"o":"m 56 0 l 56 154 l 579 822 l 81 822 l 81 972 l 775 972 l 775 818 l 251 150 l 789 150 l 789 0 "},"Ź":{"ha":844,"x_min":0,"x_max":0,"o":"m 392 1019 l 303 1118 l 683 1432 l 774 1333 m 56 0 l 56 154 l 579 822 l 81 822 l 81 972 l 775 972 l 775 818 l 251 150 l 789 150 l 789 0 "},"Ž":{"ha":844,"x_min":0,"x_max":0,"o":"m 361 1051 l 110 1278 l 207 1369 l 414 1176 l 621 1369 l 718 1276 l 469 1051 m 56 0 l 56 154 l 579 822 l 81 822 l 81 972 l 775 972 l 775 818 l 251 150 l 789 150 l 789 0 "},"Ż":{"ha":844,"x_min":0,"x_max":0,"o":"m 415 1046 b 314 1147 357 1046 314 1090 b 415 1247 314 1204 357 1247 b 517 1147 474 1247 517 1204 b 415 1046 517 1090 474 1046 m 56 0 l 56 154 l 579 822 l 81 822 l 81 972 l 775 972 l 775 818 l 251 150 l 789 150 l 789 0 "},"a":{"ha":818,"x_min":0,"x_max":0,"o":"m 326 -15 b 47 204 157 -15 46 67 b 363 429 49 376 219 413 b 557 504 474 442 556 446 b 406 624 556 576 500 624 b 229 494 308 624 239 571 l 64 494 b 408 758 79 650 218 758 b 717 493 607 758 717 650 l 717 160 b 753 128 717 139 728 128 l 793 128 l 793 0 l 715 0 b 582 86 640 0 594 31 b 575 111 579 93 576 103 b 326 -15 532 32 451 -15 m 360 114 b 557 276 472 114 557 178 l 557 379 b 381 317 529 336 458 326 b 213 215 289 306 213 293 b 360 114 213 151 264 114 "},"á":{"ha":818,"x_min":0,"x_max":0,"o":"m 372 801 l 283 901 l 674 1219 l 764 1121 m 326 -15 b 47 204 157 -15 46 67 b 363 429 49 376 219 413 b 557 504 474 442 556 446 b 406 624 556 576 500 624 b 229 494 308 624 239 571 l 64 494 b 408 758 79 650 218 758 b 717 493 607 758 717 650 l 717 160 b 753 128 717 139 728 128 l 793 128 l 793 0 l 715 0 b 582 86 640 0 594 31 b 575 111 579 93 576 103 b 326 -15 532 32 451 -15 m 360 114 b 557 276 472 114 557 178 l 557 379 b 381 317 529 336 458 326 b 213 215 289 306 213 293 b 360 114 213 151 264 114 "},"ă":{"ha":818,"x_min":0,"x_max":0,"o":"m 394 840 b 147 1061 249 840 147 931 l 147 1074 l 288 1074 l 288 1061 b 394 961 288 1001 332 961 b 499 1061 456 961 499 1001 l 499 1074 l 638 1074 l 638 1061 b 394 840 638 931 538 840 m 326 -15 b 47 204 157 -15 46 67 b 363 429 49 376 219 413 b 557 504 474 442 556 446 b 406 624 556 576 500 624 b 229 494 308 624 239 571 l 64 494 b 408 758 79 650 218 758 b 717 493 607 758 717 650 l 717 160 b 753 128 717 139 728 128 l 793 128 l 793 0 l 715 0 b 582 86 640 0 594 31 b 575 111 579 93 576 103 b 326 -15 532 32 451 -15 m 360 114 b 557 276 472 114 557 178 l 557 379 b 381 317 529 336 458 326 b 213 215 289 306 213 293 b 360 114 213 151 264 114 "},"â":{"ha":818,"x_min":0,"x_max":0,"o":"m 178 801 l 81 893 l 342 1129 l 450 1129 l 708 896 l 610 801 l 394 1003 m 326 -15 b 47 204 157 -15 46 67 b 363 429 49 376 219 413 b 557 504 474 442 556 446 b 406 624 556 576 500 624 b 229 494 308 624 239 571 l 64 494 b 408 758 79 650 218 758 b 717 493 607 758 717 650 l 717 160 b 753 128 717 139 728 128 l 793 128 l 793 0 l 715 0 b 582 86 640 0 594 31 b 575 111 579 93 576 103 b 326 -15 532 32 451 -15 m 360 114 b 557 276 472 114 557 178 l 557 379 b 381 317 529 336 458 326 b 213 215 289 306 213 293 b 360 114 213 151 264 114 "},"ä":{"ha":818,"x_min":0,"x_max":0,"o":"m 249 822 b 147 924 192 822 147 867 b 249 1024 147 979 192 1024 b 349 924 304 1024 349 979 b 249 822 349 867 304 822 m 542 822 b 440 924 486 822 440 867 b 542 1024 440 979 486 1024 b 642 924 597 1024 642 979 b 542 822 642 867 597 822 m 326 -15 b 47 204 157 -15 46 67 b 363 429 49 376 219 413 b 557 504 474 442 556 446 b 406 624 556 576 500 624 b 229 494 308 624 239 571 l 64 494 b 408 758 79 650 218 758 b 717 493 607 758 717 650 l 717 160 b 753 128 717 139 728 128 l 793 128 l 793 0 l 715 0 b 582 86 640 0 594 31 b 575 111 579 93 576 103 b 326 -15 532 32 451 -15 m 360 114 b 557 276 472 114 557 178 l 557 379 b 381 317 529 336 458 326 b 213 215 289 306 213 293 b 360 114 213 151 264 114 "},"à":{"ha":818,"x_min":0,"x_max":0,"o":"m 418 801 l 28 1121 l 117 1219 l 508 901 m 326 -15 b 47 204 157 -15 46 67 b 363 429 49 376 219 413 b 557 504 474 442 556 446 b 406 624 556 576 500 624 b 229 494 308 624 239 571 l 64 494 b 408 758 79 650 218 758 b 717 493 607 758 717 650 l 717 160 b 753 128 717 139 728 128 l 793 128 l 793 0 l 715 0 b 582 86 640 0 594 31 b 575 111 579 93 576 103 b 326 -15 532 32 451 -15 m 360 114 b 557 276 472 114 557 178 l 557 379 b 381 317 529 336 458 326 b 213 215 289 306 213 293 b 360 114 213 151 264 114 "},"ā":{"ha":818,"x_min":0,"x_max":0,"o":"m 124 861 l 124 990 l 665 990 l 665 861 m 326 -15 b 47 204 157 -15 46 67 b 363 429 49 376 219 413 b 557 504 474 442 556 446 b 406 624 556 576 500 624 b 229 494 308 624 239 571 l 64 494 b 408 758 79 650 218 758 b 717 493 607 758 717 650 l 717 160 b 753 128 717 139 728 128 l 793 128 l 793 0 l 715 0 b 582 86 640 0 594 31 b 575 111 579 93 576 103 b 326 -15 532 32 451 -15 m 360 114 b 557 276 472 114 557 178 l 557 379 b 381 317 529 336 458 326 b 213 215 289 306 213 293 b 360 114 213 151 264 114 "},"ą":{"ha":818,"x_min":0,"x_max":0,"o":"m 824 -282 b 718 -300 786 -294 753 -300 b 553 -174 617 -300 553 -250 b 669 4 553 -111 596 -43 b 582 86 621 15 592 43 b 575 111 579 93 576 103 b 326 -15 532 32 451 -15 b 47 204 157 -15 46 67 b 363 429 49 376 219 413 b 557 504 474 442 556 446 b 406 624 556 576 500 624 b 229 494 308 624 239 571 l 64 494 b 408 758 79 650 218 758 b 717 493 607 758 717 650 l 717 160 b 753 128 717 139 728 128 l 793 128 l 793 0 b 683 -125 722 -39 683 -85 b 738 -168 683 -154 706 -168 b 803 -154 758 -168 778 -162 m 557 379 b 381 317 529 336 458 326 b 213 215 289 306 213 293 b 360 114 213 151 264 114 b 557 276 472 114 557 178 "},"å":{"ha":818,"x_min":0,"x_max":0,"o":"m 394 799 b 233 951 303 799 233 865 b 394 1104 233 1039 303 1104 b 556 951 486 1104 556 1039 b 394 799 556 865 486 799 m 394 888 b 460 951 435 888 460 917 b 394 1017 460 986 435 1017 b 329 951 353 1017 329 986 b 394 888 329 917 353 888 m 326 -15 b 47 204 157 -15 46 67 b 363 429 49 376 219 413 b 557 504 474 442 556 446 b 406 624 556 576 500 624 b 229 494 308 624 239 571 l 64 494 b 408 758 79 650 218 758 b 717 493 607 758 717 650 l 717 160 b 753 128 717 139 728 128 l 793 128 l 793 0 l 715 0 b 582 86 640 0 594 31 b 575 111 579 93 576 103 b 326 -15 532 32 451 -15 m 360 114 b 557 276 472 114 557 178 l 557 379 b 381 317 529 336 458 326 b 213 215 289 306 213 293 b 360 114 213 151 264 114 "},"ǎ":{"ha":818,"x_min":0,"x_max":0,"o":"m 342 831 l 81 1067 l 178 1157 l 394 956 l 610 1157 l 708 1064 l 450 831 m 326 -15 b 47 204 157 -15 46 67 b 363 429 49 376 219 413 b 557 504 474 442 556 446 b 406 624 556 576 500 624 b 229 494 308 624 239 571 l 64 494 b 408 758 79 650 218 758 b 717 493 607 758 717 650 l 717 160 b 753 128 717 139 728 128 l 793 128 l 793 0 l 715 0 b 582 86 640 0 594 31 b 575 111 579 93 576 103 b 326 -15 532 32 451 -15 m 360 114 b 557 276 472 114 557 178 l 557 379 b 381 317 529 336 458 326 b 213 215 289 306 213 293 b 360 114 213 151 264 114 "},"ã":{"ha":818,"x_min":0,"x_max":0,"o":"m 529 865 b 311 964 432 865 361 964 b 260 872 281 964 260 925 l 129 872 b 276 1086 129 1003 188 1086 b 489 988 371 1086 438 988 b 533 1075 517 988 533 1014 l 661 1075 b 529 865 661 939 614 865 m 326 -15 b 47 204 157 -15 46 67 b 363 429 49 376 219 413 b 557 504 474 442 556 446 b 406 624 556 576 500 624 b 229 494 308 624 239 571 l 64 494 b 408 758 79 650 218 758 b 717 493 607 758 717 650 l 717 160 b 753 128 717 139 728 128 l 793 128 l 793 0 l 715 0 b 582 86 640 0 594 31 b 575 111 579 93 576 103 b 326 -15 532 32 451 -15 m 360 114 b 557 276 472 114 557 178 l 557 379 b 381 317 529 336 458 326 b 213 215 289 306 213 293 b 360 114 213 151 264 114 "},"æ":{"ha":1333,"x_min":0,"x_max":0,"o":"m 951 -21 b 614 181 794 -21 674 57 b 326 -15 582 60 485 -15 b 47 204 157 -15 46 67 b 363 429 49 376 219 413 b 557 504 474 442 556 446 b 406 624 556 576 500 624 b 229 494 308 624 239 571 l 64 494 b 408 758 79 650 218 758 b 672 644 532 758 622 715 b 938 758 738 718 832 758 b 1289 374 1146 758 1285 613 l 1289 335 l 736 335 b 953 118 747 206 828 118 b 1126 233 1038 118 1101 160 l 1286 233 b 951 -21 1249 75 1125 -21 m 1119 450 b 938 619 1099 556 1033 619 b 743 450 840 619 768 556 m 360 114 b 557 290 472 114 557 178 l 557 379 b 381 317 529 336 458 326 b 213 215 289 306 213 293 b 360 114 213 151 264 114 "},"b":{"ha":871,"x_min":0,"x_max":0,"o":"m 493 -21 b 233 131 376 -21 279 38 l 218 0 l 86 0 l 86 1042 l 250 1042 l 250 640 b 494 758 303 713 390 758 b 826 372 689 758 826 600 b 493 -21 826 140 689 -21 m 457 118 b 658 372 576 118 658 222 b 457 619 658 518 576 619 b 250 376 336 619 250 519 b 457 118 250 225 336 118 "},"c":{"ha":817,"x_min":0,"x_max":0,"o":"m 425 -21 b 44 374 185 -21 44 151 b 421 758 44 615 207 758 b 772 451 622 758 758 635 l 611 451 b 419 618 596 553 524 618 b 211 374 294 618 211 524 b 425 119 211 213 303 119 b 611 289 525 119 594 183 l 772 289 b 425 -21 753 99 621 -21 "},"ć":{"ha":817,"x_min":0,"x_max":0,"o":"m 397 801 l 308 901 l 699 1219 l 789 1121 m 425 -21 b 44 374 185 -21 44 151 b 421 758 44 615 207 758 b 772 451 622 758 758 635 l 611 451 b 419 618 596 553 524 618 b 211 374 294 618 211 524 b 425 119 211 213 303 119 b 611 289 525 119 594 183 l 772 289 b 425 -21 753 99 621 -21 "},"č":{"ha":817,"x_min":0,"x_max":0,"o":"m 367 831 l 106 1067 l 203 1157 l 419 956 l 635 1157 l 733 1064 l 475 831 m 425 -21 b 44 374 185 -21 44 151 b 421 758 44 615 207 758 b 772 451 622 758 758 635 l 611 451 b 419 618 596 553 524 618 b 211 374 294 618 211 524 b 425 119 211 213 303 119 b 611 289 525 119 594 183 l 772 289 b 425 -21 753 99 621 -21 "},"ç":{"ha":817,"x_min":0,"x_max":0,"o":"m 425 119 b 611 289 525 119 594 183 l 772 289 b 486 -17 756 119 647 6 l 382 -314 l 254 -289 l 350 -15 b 44 374 156 18 44 176 b 421 758 44 615 207 758 b 772 451 622 758 758 635 l 611 451 b 419 618 596 553 524 618 b 211 374 294 618 211 524 b 425 119 211 213 303 119 "},"ċ":{"ha":817,"x_min":0,"x_max":0,"o":"m 421 822 b 319 924 363 822 319 865 b 421 1024 319 979 363 1024 b 522 924 479 1024 522 979 b 421 822 522 865 479 822 m 425 -21 b 44 374 185 -21 44 151 b 421 758 44 615 207 758 b 772 451 622 758 758 635 l 611 451 b 419 618 596 553 524 618 b 211 374 294 618 211 524 b 425 119 211 213 303 119 b 611 289 525 119 594 183 l 772 289 b 425 -21 753 99 621 -21 "},"d":{"ha":872,"x_min":0,"x_max":0,"o":"m 386 -21 b 44 372 188 -21 44 140 b 381 758 44 600 185 758 b 622 646 485 758 571 715 l 622 1042 l 786 1042 l 786 0 l 654 0 l 639 131 b 386 -21 597 38 506 -21 m 417 118 b 622 374 538 118 622 224 b 419 621 622 519 539 621 b 213 371 297 621 213 518 b 417 118 213 222 296 118 "},"ð":{"ha":833,"x_min":0,"x_max":0,"o":"m 397 -21 b 44 343 192 -21 44 131 b 369 686 44 547 181 686 b 601 574 471 686 553 644 b 449 799 583 657 535 736 l 188 697 l 139 807 l 307 871 b 150 917 261 889 208 904 l 188 1053 b 489 942 307 1028 407 990 l 715 1028 l 763 921 l 599 857 b 771 433 717 747 771 601 b 397 -21 771 156 622 -21 m 404 119 b 593 339 517 119 593 208 b 403 550 593 463 515 550 b 211 338 290 550 211 464 b 404 119 211 211 292 119 "},"ď":{"ha":1019,"x_min":0,"x_max":0,"o":"m 386 -21 b 44 372 188 -21 44 140 b 381 758 44 600 185 758 b 622 646 485 758 571 715 l 622 1042 l 786 1042 l 786 0 l 654 0 l 639 131 b 386 -21 597 38 506 -21 m 886 589 l 886 1042 l 1022 1042 l 1022 589 m 417 118 b 622 374 538 118 622 224 b 419 621 622 519 539 621 b 213 371 297 621 213 518 b 417 118 213 222 296 118 "},"đ":{"ha":913,"x_min":0,"x_max":0,"o":"m 386 -21 b 44 372 188 -21 44 140 b 381 758 44 600 185 758 b 622 646 485 758 571 715 l 622 844 l 306 844 l 306 964 l 622 964 l 622 1042 l 786 1042 l 786 964 l 922 964 l 922 844 l 786 844 l 786 0 l 654 0 l 639 131 b 386 -21 597 38 506 -21 m 417 118 b 622 374 538 118 622 224 b 419 621 622 519 539 621 b 213 371 297 621 213 518 b 417 118 213 222 296 118 "},"e":{"ha":806,"x_min":0,"x_max":0,"o":"m 424 -21 b 44 365 199 -21 44 140 b 410 758 44 608 204 758 b 761 374 618 758 757 613 l 761 335 l 208 335 b 425 118 219 206 300 118 b 599 233 510 118 574 160 l 758 233 b 424 -21 721 75 597 -21 m 592 450 b 410 619 571 556 506 619 b 215 450 313 619 240 556 "},"é":{"ha":806,"x_min":0,"x_max":0,"o":"m 383 801 l 294 901 l 685 1219 l 775 1121 m 424 -21 b 44 365 199 -21 44 140 b 410 758 44 608 204 758 b 761 374 618 758 757 613 l 761 335 l 208 335 b 425 118 219 206 300 118 b 599 233 510 118 574 160 l 758 233 b 424 -21 721 75 597 -21 m 592 450 b 410 619 571 556 506 619 b 215 450 313 619 240 556 "},"ě":{"ha":806,"x_min":0,"x_max":0,"o":"m 353 831 l 92 1067 l 189 1157 l 406 956 l 621 1157 l 719 1064 l 461 831 m 424 -21 b 44 365 199 -21 44 140 b 410 758 44 608 204 758 b 761 374 618 758 757 613 l 761 335 l 208 335 b 425 118 219 206 300 118 b 599 233 510 118 574 160 l 758 233 b 424 -21 721 75 597 -21 m 592 450 b 410 619 571 556 506 619 b 215 450 313 619 240 556 "},"ê":{"ha":806,"x_min":0,"x_max":0,"o":"m 189 801 l 92 893 l 353 1129 l 461 1129 l 719 896 l 621 801 l 406 1003 m 424 -21 b 44 365 199 -21 44 140 b 410 758 44 608 204 758 b 761 374 618 758 757 613 l 761 335 l 208 335 b 425 118 219 206 300 118 b 599 233 510 118 574 160 l 758 233 b 424 -21 721 75 597 -21 m 592 450 b 410 619 571 556 506 619 b 215 450 313 619 240 556 "},"ë":{"ha":806,"x_min":0,"x_max":0,"o":"m 260 822 b 158 924 203 822 158 867 b 260 1024 158 979 203 1024 b 360 924 315 1024 360 979 b 260 822 360 867 315 822 m 553 822 b 451 924 497 822 451 867 b 553 1024 451 979 497 1024 b 653 924 608 1024 653 979 b 553 822 653 867 608 822 m 424 -21 b 44 365 199 -21 44 140 b 410 758 44 608 204 758 b 761 374 618 758 757 613 l 761 335 l 208 335 b 425 118 219 206 300 118 b 599 233 510 118 574 160 l 758 233 b 424 -21 721 75 597 -21 m 592 450 b 410 619 571 556 506 619 b 215 450 313 619 240 556 "},"ė":{"ha":806,"x_min":0,"x_max":0,"o":"m 407 822 b 306 924 349 822 306 865 b 407 1024 306 979 349 1024 b 508 924 465 1024 508 979 b 407 822 508 865 465 822 m 424 -21 b 44 365 199 -21 44 140 b 410 758 44 608 204 758 b 761 374 618 758 757 613 l 761 335 l 208 335 b 425 118 219 206 300 118 b 599 233 510 118 574 160 l 758 233 b 424 -21 721 75 597 -21 m 592 450 b 410 619 571 556 506 619 b 215 450 313 619 240 556 "},"è":{"ha":806,"x_min":0,"x_max":0,"o":"m 429 801 l 39 1121 l 128 1219 l 519 901 m 424 -21 b 44 365 199 -21 44 140 b 410 758 44 608 204 758 b 761 374 618 758 757 613 l 761 335 l 208 335 b 425 118 219 206 300 118 b 599 233 510 118 574 160 l 758 233 b 424 -21 721 75 597 -21 m 592 450 b 410 619 571 556 506 619 b 215 450 313 619 240 556 "},"ē":{"ha":806,"x_min":0,"x_max":0,"o":"m 135 861 l 135 990 l 676 990 l 676 861 m 424 -21 b 44 365 199 -21 44 140 b 410 758 44 608 204 758 b 761 374 618 758 757 613 l 761 335 l 208 335 b 425 118 219 206 300 118 b 599 233 510 118 574 160 l 758 233 b 424 -21 721 75 597 -21 m 592 450 b 410 619 571 556 506 619 b 215 450 313 619 240 556 "},"ę":{"ha":806,"x_min":0,"x_max":0,"o":"m 761 335 l 208 335 b 425 118 219 206 300 118 b 599 233 510 118 574 160 l 758 233 b 581 10 733 128 671 50 b 493 -101 524 -25 493 -65 b 547 -144 493 -131 515 -144 b 613 -131 568 -144 588 -139 l 633 -258 b 528 -276 596 -271 563 -276 b 363 -150 426 -276 363 -226 b 419 -21 363 -107 383 -61 b 44 365 197 -19 44 142 b 410 758 44 608 204 758 b 761 374 618 758 757 613 m 592 450 b 410 619 571 556 506 619 b 215 450 313 619 240 556 "},"f":{"ha":567,"x_min":0,"x_max":0,"o":"m 165 0 l 165 597 l 36 597 l 36 736 l 165 736 l 165 828 b 400 1042 165 967 247 1042 l 560 1042 l 560 903 l 411 903 b 329 817 358 903 329 872 l 329 736 l 543 736 l 543 597 l 329 597 l 329 0 "},"g":{"ha":863,"x_min":0,"x_max":0,"o":"m 419 -300 b 72 -42 214 -300 72 -200 l 236 -42 b 419 -167 236 -111 310 -167 b 618 22 550 -167 618 -89 l 618 126 b 383 11 571 56 489 11 b 44 383 186 11 44 164 b 382 758 44 604 186 758 b 636 622 497 758 590 704 l 650 736 l 781 736 l 781 22 b 419 -300 781 -172 643 -300 m 415 149 b 618 385 535 149 618 246 b 415 619 618 524 535 619 b 214 383 296 619 214 524 b 415 149 214 244 296 149 "},"ğ":{"ha":863,"x_min":0,"x_max":0,"o":"m 417 840 b 169 1061 271 840 169 931 l 169 1074 l 310 1074 l 310 1061 b 417 961 310 1001 354 961 b 521 1061 478 961 521 1001 l 521 1074 l 660 1074 l 660 1061 b 417 840 660 931 560 840 m 419 -300 b 72 -42 214 -300 72 -200 l 236 -42 b 419 -167 236 -111 310 -167 b 618 22 550 -167 618 -89 l 618 126 b 383 11 571 56 489 11 b 44 383 186 11 44 164 b 382 758 44 604 186 758 b 636 622 497 758 590 704 l 650 736 l 781 736 l 781 22 b 419 -300 781 -172 643 -300 m 415 149 b 618 385 535 149 618 246 b 415 619 618 524 535 619 b 214 383 296 619 214 524 b 415 149 214 244 296 149 "},"ģ":{"ha":863,"x_min":0,"x_max":0,"o":"m 500 1290 l 626 1251 l 476 778 l 344 818 m 419 -300 b 72 -42 214 -300 72 -200 l 236 -42 b 419 -167 236 -111 310 -167 b 618 22 550 -167 618 -89 l 618 126 b 383 11 571 56 489 11 b 44 383 186 11 44 164 b 382 758 44 604 186 758 b 636 622 497 758 590 704 l 650 736 l 781 736 l 781 22 b 419 -300 781 -172 643 -300 m 415 149 b 618 385 535 149 618 246 b 415 619 618 524 535 619 b 214 383 296 619 214 524 b 415 149 214 244 296 149 "},"ġ":{"ha":863,"x_min":0,"x_max":0,"o":"m 417 822 b 315 924 358 822 315 865 b 417 1024 315 979 358 1024 b 518 924 475 1024 518 979 b 417 822 518 865 475 822 m 419 -300 b 72 -42 214 -300 72 -200 l 236 -42 b 419 -167 236 -111 310 -167 b 618 22 550 -167 618 -89 l 618 126 b 383 11 571 56 489 11 b 44 383 186 11 44 164 b 382 758 44 604 186 758 b 636 622 497 758 590 704 l 650 736 l 781 736 l 781 22 b 419 -300 781 -172 643 -300 m 415 149 b 618 385 535 149 618 246 b 415 619 618 524 535 619 b 214 383 296 619 214 524 b 415 149 214 244 296 149 "},"h":{"ha":814,"x_min":0,"x_max":0,"o":"m 86 0 l 86 1042 l 250 1042 l 250 657 b 481 758 300 718 385 758 b 740 488 638 758 740 653 l 740 0 l 576 0 l 576 479 b 435 615 576 561 522 615 b 250 446 324 615 251 542 l 250 0 "},"ħ":{"ha":868,"x_min":0,"x_max":0,"o":"m 139 0 l 139 844 l -10 844 l -10 964 l 139 964 l 139 1042 l 304 1042 l 304 964 l 601 964 l 601 844 l 304 844 l 304 657 b 533 758 354 718 438 758 b 794 488 690 758 794 653 l 794 0 l 629 0 l 629 479 b 489 615 629 561 575 615 b 304 446 376 615 304 542 l 304 0 "},"i":{"ha":331,"x_min":0,"x_max":0,"o":"m 165 835 b 60 942 106 835 60 882 b 165 1047 60 1001 106 1047 b 271 942 226 1047 271 1001 b 165 835 271 882 226 835 m 83 0 l 83 736 l 247 736 l 247 0 "},"ı":{"ha":332,"x_min":0,"x_max":0,"o":"m 83 0 l 85 736 l 249 736 l 247 0 "},"í":{"ha":332,"x_min":0,"x_max":0,"o":"m 144 801 l 56 901 l 446 1219 l 536 1121 m 83 0 l 85 736 l 249 736 l 247 0 "},"î":{"ha":332,"x_min":0,"x_max":0,"o":"m -50 801 l -147 893 l 114 1129 l 222 1129 l 481 896 l 382 801 l 167 1003 m 83 0 l 85 736 l 249 736 l 247 0 "},"ï":{"ha":332,"x_min":0,"x_max":0,"o":"m 21 822 b -82 924 -36 822 -82 867 b 21 1024 -82 979 -36 1024 b 121 924 76 1024 121 979 b 21 822 121 867 76 822 m 314 822 b 213 924 258 822 213 867 b 314 1024 213 979 258 1024 b 414 924 369 1024 414 979 b 314 822 414 867 369 822 m 83 0 l 85 736 l 249 736 l 247 0 "},"ì":{"ha":332,"x_min":0,"x_max":0,"o":"m 189 801 l -201 1121 l -112 1219 l 279 901 m 83 0 l 85 736 l 249 736 l 247 0 "},"ī":{"ha":332,"x_min":0,"x_max":0,"o":"m -104 861 l -104 990 l 438 990 l 438 861 m 83 0 l 85 736 l 249 736 l 247 0 "},"ǐ":{"ha":332,"x_min":0,"x_max":0,"o":"m 114 831 l -147 1067 l -50 1157 l 167 956 l 382 1157 l 481 1064 l 222 831 m 83 0 l 85 736 l 249 736 l 247 0 "},"į":{"ha":331,"x_min":0,"x_max":0,"o":"m 165 835 b 60 942 106 835 60 882 b 165 1047 60 1001 106 1047 b 271 942 226 1047 271 1001 b 165 835 271 882 226 835 m 176 -168 b 242 -154 197 -168 217 -162 l 263 -282 b 157 -300 225 -294 192 -300 b -8 -174 56 -300 -8 -250 b 101 0 -8 -112 32 -47 l 83 0 l 83 736 l 247 736 l 247 0 l 232 0 b 122 -125 161 -39 122 -85 b 176 -168 122 -154 144 -168 "},"j":{"ha":331,"x_min":0,"x_max":0,"o":"m 165 835 b 60 942 106 835 60 881 b 165 1047 60 1001 106 1047 b 271 942 226 1047 271 1001 b 165 835 271 881 226 835 m -115 -278 l -115 -139 l -10 -139 b 83 -42 51 -139 83 -106 l 83 736 l 247 736 l 247 -54 b 1 -278 247 -200 161 -278 "},"k":{"ha":794,"x_min":0,"x_max":0,"o":"m 86 0 l 86 1042 l 250 1042 l 250 417 l 564 736 l 764 736 l 497 471 l 800 0 l 610 0 l 383 357 l 250 224 l 250 0 "},"ķ":{"ha":794,"x_min":0,"x_max":0,"o":"m 86 0 l 86 1042 l 250 1042 l 250 417 l 564 736 l 764 736 l 497 471 l 800 0 l 610 0 l 383 357 l 250 224 l 250 0 m 325 -554 l 200 -515 l 350 -42 l 482 -82 "},"l":{"ha":336,"x_min":0,"x_max":0,"o":"m 86 0 l 86 1042 l 250 1042 l 250 0 "},"ĺ":{"ha":336,"x_min":0,"x_max":0,"o":"m 146 1089 l 57 1188 l 438 1501 l 528 1403 m 86 0 l 86 1042 l 250 1042 l 250 0 "},"ľ":{"ha":483,"x_min":0,"x_max":0,"o":"m 86 0 l 86 1042 l 250 1042 l 250 0 m 350 589 l 350 1042 l 486 1042 l 486 589 "},"ļ":{"ha":336,"x_min":0,"x_max":0,"o":"m 86 0 l 86 1042 l 250 1042 l 250 0 m 85 -554 l -42 -515 l 110 -42 l 242 -82 "},"ł":{"ha":565,"x_min":0,"x_max":0,"o":"m 201 0 l 201 444 l 39 346 l -17 446 l 201 579 l 201 1042 l 365 1042 l 365 679 l 526 778 l 582 676 l 365 544 l 365 0 "},"m":{"ha":1278,"x_min":0,"x_max":0,"o":"m 83 0 l 83 736 l 215 736 l 228 633 b 474 758 274 706 364 758 b 699 621 579 758 660 706 b 951 758 740 699 835 758 b 1204 490 1106 758 1204 649 l 1204 0 l 1039 0 l 1039 482 b 910 617 1039 564 989 617 b 725 446 797 617 726 543 l 725 0 l 561 0 l 561 482 b 432 617 561 564 511 617 b 247 446 319 617 249 543 l 247 0 "},"n":{"ha":811,"x_min":0,"x_max":0,"o":"m 83 0 l 83 736 l 215 736 l 229 628 b 478 758 275 704 368 758 b 738 488 635 758 738 653 l 738 0 l 574 0 l 574 479 b 428 615 574 561 519 615 b 247 446 321 615 249 542 l 247 0 "},"ń":{"ha":811,"x_min":0,"x_max":0,"o":"m 399 801 l 310 901 l 700 1219 l 790 1121 m 83 0 l 83 736 l 215 736 l 229 628 b 478 758 275 704 368 758 b 738 488 635 758 738 653 l 738 0 l 574 0 l 574 479 b 428 615 574 561 519 615 b 247 446 321 615 249 542 l 247 0 "},"ň":{"ha":811,"x_min":0,"x_max":0,"o":"m 369 831 l 108 1067 l 206 1157 l 422 956 l 638 1157 l 736 1064 l 478 831 m 83 0 l 83 736 l 215 736 l 229 628 b 478 758 275 704 368 758 b 738 488 635 758 738 653 l 738 0 l 574 0 l 574 479 b 428 615 574 561 519 615 b 247 446 321 615 249 542 l 247 0 "},"ņ":{"ha":811,"x_min":0,"x_max":0,"o":"m 83 0 l 83 736 l 215 736 l 229 628 b 478 758 275 704 368 758 b 738 488 635 758 738 653 l 738 0 l 574 0 l 574 479 b 428 615 574 561 519 615 b 247 446 321 615 249 542 l 247 0 m 326 -554 l 201 -515 l 351 -42 l 483 -82 "},"ŋ":{"ha":811,"x_min":0,"x_max":0,"o":"m 376 -278 l 376 -142 l 481 -142 b 574 -44 542 -142 574 -107 l 574 479 b 428 615 574 561 519 615 b 247 446 321 615 249 542 l 247 0 l 83 0 l 83 736 l 215 736 l 229 628 b 478 758 275 704 368 758 b 738 488 635 758 738 653 l 738 -54 b 492 -278 738 -200 651 -278 "},"ñ":{"ha":811,"x_min":0,"x_max":0,"o":"m 556 865 b 338 964 458 865 388 964 b 286 872 307 964 286 925 l 156 872 b 303 1086 156 1003 214 1086 b 515 988 397 1086 464 988 b 560 1075 543 988 560 1014 l 688 1075 b 556 865 688 939 640 865 m 83 0 l 83 736 l 215 736 l 229 628 b 478 758 275 704 368 758 b 738 488 635 758 738 653 l 738 0 l 574 0 l 574 479 b 428 615 574 561 519 615 b 247 446 321 615 249 542 l 247 0 "},"o":{"ha":843,"x_min":0,"x_max":0,"o":"m 422 -21 b 44 375 183 -21 44 147 b 422 758 44 615 207 758 b 799 375 660 758 799 592 b 422 -21 799 126 642 -21 m 422 119 b 632 375 554 119 632 228 b 422 618 632 521 550 618 b 211 375 294 618 211 521 b 422 119 211 214 301 119 "},"ó":{"ha":843,"x_min":0,"x_max":0,"o":"m 399 801 l 310 901 l 700 1219 l 790 1121 m 422 -21 b 44 375 183 -21 44 147 b 422 758 44 615 207 758 b 799 375 660 758 799 592 b 422 -21 799 126 642 -21 m 422 119 b 632 375 554 119 632 228 b 422 618 632 521 550 618 b 211 375 294 618 211 521 b 422 119 211 214 301 119 "},"ô":{"ha":843,"x_min":0,"x_max":0,"o":"m 206 801 l 108 893 l 369 1129 l 478 1129 l 736 896 l 638 801 l 422 1003 m 422 -21 b 44 375 183 -21 44 147 b 422 758 44 615 207 758 b 799 375 660 758 799 592 b 422 -21 799 126 642 -21 m 422 119 b 632 375 554 119 632 228 b 422 618 632 521 550 618 b 211 375 294 618 211 521 b 422 119 211 214 301 119 "},"ö":{"ha":843,"x_min":0,"x_max":0,"o":"m 276 822 b 175 924 219 822 175 867 b 276 1024 175 979 219 1024 b 376 924 332 1024 376 979 b 276 822 376 867 332 822 m 569 822 b 468 924 514 822 468 867 b 569 1024 468 979 514 1024 b 669 924 625 1024 669 979 b 569 822 669 867 625 822 m 422 -21 b 44 375 183 -21 44 147 b 422 758 44 615 207 758 b 799 375 660 758 799 592 b 422 -21 799 126 642 -21 m 422 119 b 632 375 554 119 632 228 b 422 618 632 521 550 618 b 211 375 294 618 211 521 b 422 119 211 214 301 119 "},"ò":{"ha":843,"x_min":0,"x_max":0,"o":"m 444 801 l 54 1121 l 143 1219 l 535 901 m 422 -21 b 44 375 183 -21 44 147 b 422 758 44 615 207 758 b 799 375 660 758 799 592 b 422 -21 799 126 642 -21 m 422 119 b 632 375 554 119 632 228 b 422 618 632 521 550 618 b 211 375 294 618 211 521 b 422 119 211 214 301 119 "},"ő":{"ha":843,"x_min":0,"x_max":0,"o":"m 356 824 l 236 890 l 546 1275 l 661 1210 m 565 786 l 446 853 l 754 1239 l 869 1175 m 422 -21 b 44 375 183 -21 44 147 b 422 758 44 615 207 758 b 799 375 660 758 799 592 b 422 -21 799 126 642 -21 m 422 119 b 632 375 554 119 632 228 b 422 618 632 521 550 618 b 211 375 294 618 211 521 b 422 119 211 214 301 119 "},"ō":{"ha":843,"x_min":0,"x_max":0,"o":"m 151 861 l 151 990 l 693 990 l 693 861 m 422 -21 b 44 375 183 -21 44 147 b 422 758 44 615 207 758 b 799 375 660 758 799 592 b 422 -21 799 126 642 -21 m 422 119 b 632 375 554 119 632 228 b 422 618 632 521 550 618 b 211 375 294 618 211 521 b 422 119 211 214 301 119 "},"ø":{"ha":843,"x_min":0,"x_max":0,"o":"m 700 647 b 799 375 764 579 799 483 b 422 -21 799 126 642 -21 b 217 32 342 -21 272 -1 l 140 -65 l 68 -17 l 149 86 b 44 375 81 157 44 258 b 422 758 44 615 207 758 b 631 704 504 758 574 739 l 704 797 l 779 749 m 211 375 b 250 217 211 311 225 257 l 538 585 b 422 618 506 606 467 618 b 211 375 294 618 211 521 m 422 119 b 632 375 554 119 632 228 b 599 518 632 431 619 479 l 311 151 b 422 119 343 131 381 119 "},"ǒ":{"ha":843,"x_min":0,"x_max":0,"o":"m 369 831 l 108 1067 l 206 1157 l 422 956 l 638 1157 l 736 1064 l 478 831 m 422 -21 b 44 375 183 -21 44 147 b 422 758 44 615 207 758 b 799 375 660 758 799 592 b 422 -21 799 126 642 -21 m 422 119 b 632 375 554 119 632 228 b 422 618 632 521 550 618 b 211 375 294 618 211 521 b 422 119 211 214 301 119 "},"õ":{"ha":843,"x_min":0,"x_max":0,"o":"m 556 865 b 338 964 458 865 388 964 b 286 872 307 964 286 925 l 156 872 b 303 1086 156 1003 214 1086 b 515 988 397 1086 464 988 b 560 1075 543 988 560 1014 l 688 1075 b 556 865 688 939 640 865 m 422 -21 b 44 375 183 -21 44 147 b 422 758 44 615 207 758 b 799 375 660 758 799 592 b 422 -21 799 126 642 -21 m 422 119 b 632 375 554 119 632 228 b 422 618 632 521 550 618 b 211 375 294 618 211 521 b 422 119 211 214 301 119 "},"œ":{"ha":1450,"x_min":0,"x_max":0,"o":"m 422 -21 b 44 375 183 -21 44 147 b 422 758 44 615 207 758 b 744 586 572 758 683 690 b 1053 758 808 696 921 758 b 1406 374 1261 758 1401 613 l 1406 335 l 851 335 b 1068 118 863 206 944 118 b 1243 233 1154 118 1217 160 l 1403 233 b 1067 -21 1365 75 1240 -21 b 744 153 922 -21 808 46 b 422 -21 681 42 564 -21 m 1236 450 b 1053 619 1215 556 1150 619 b 860 450 957 619 883 556 m 422 119 b 632 375 554 119 632 228 b 422 618 632 521 550 618 b 211 375 294 618 211 521 b 422 119 211 214 301 119 "},"p":{"ha":871,"x_min":0,"x_max":0,"o":"m 85 -278 l 85 736 l 217 736 l 233 615 b 494 758 282 701 378 758 b 826 372 689 758 826 600 b 493 -21 826 140 689 -21 b 250 103 388 -21 300 26 l 250 -278 m 457 118 b 658 372 576 118 658 222 b 456 619 658 518 576 619 b 250 376 335 619 250 519 b 457 118 250 225 335 118 "},"þ":{"ha":871,"x_min":0,"x_max":0,"o":"m 86 -278 l 86 1042 l 250 1042 l 250 640 b 494 758 301 713 390 758 b 826 372 689 758 826 600 b 493 -21 826 140 689 -21 b 250 103 388 -21 300 26 l 250 -278 m 457 118 b 658 372 576 118 658 222 b 456 619 658 518 576 619 b 250 376 335 619 250 519 b 457 118 250 225 335 118 "},"q":{"ha":871,"x_min":0,"x_max":0,"o":"m 622 -278 l 622 100 b 386 -21 575 25 492 -21 b 44 372 188 -21 44 140 b 381 758 44 600 185 758 b 639 619 497 758 593 704 l 654 736 l 786 736 l 786 -278 m 417 118 b 622 374 538 118 622 224 b 419 621 622 519 539 621 b 213 371 297 621 213 518 b 417 118 213 222 296 118 "},"r":{"ha":543,"x_min":0,"x_max":0,"o":"m 83 0 l 83 736 l 215 736 l 235 592 b 490 744 282 692 368 744 l 518 744 l 518 585 l 490 585 b 247 364 338 585 247 503 l 247 0 "},"ŕ":{"ha":543,"x_min":0,"x_max":0,"o":"m 292 801 l 203 901 l 593 1219 l 683 1121 m 83 0 l 83 736 l 215 736 l 235 592 b 490 744 282 692 368 744 l 518 744 l 518 585 l 490 585 b 247 364 338 585 247 503 l 247 0 "},"ř":{"ha":543,"x_min":0,"x_max":0,"o":"m 261 831 l 0 1067 l 97 1157 l 314 956 l 529 1157 l 628 1064 l 369 831 m 83 0 l 83 736 l 215 736 l 235 592 b 490 744 282 692 368 744 l 518 744 l 518 585 l 490 585 b 247 364 338 585 247 503 l 247 0 "},"ŗ":{"ha":543,"x_min":0,"x_max":0,"o":"m 83 0 l 83 736 l 215 736 l 235 592 b 490 744 282 692 368 744 l 518 744 l 518 585 l 490 585 b 247 364 338 585 247 503 l 247 0 m 81 -554 l -46 -515 l 106 -42 l 238 -82 "},"s":{"ha":694,"x_min":0,"x_max":0,"o":"m 376 -21 b 46 235 175 -21 56 74 l 204 235 b 368 114 210 156 278 114 b 496 203 451 114 496 146 b 385 292 496 260 449 271 l 288 324 b 60 542 165 364 60 406 b 336 758 60 672 160 758 b 643 501 507 758 624 668 l 488 501 b 335 624 479 585 419 624 b 221 543 263 624 221 593 b 338 453 221 486 285 471 l 426 424 b 660 199 572 375 660 331 b 376 -21 660 63 557 -21 "},"ś":{"ha":694,"x_min":0,"x_max":0,"o":"m 325 801 l 236 901 l 626 1219 l 717 1121 m 376 -21 b 46 235 175 -21 56 74 l 204 235 b 368 114 210 156 278 114 b 496 203 451 114 496 146 b 385 292 496 260 449 271 l 288 324 b 60 542 165 364 60 406 b 336 758 60 672 160 758 b 643 501 507 758 624 668 l 488 501 b 335 624 479 585 419 624 b 221 543 263 624 221 593 b 338 453 221 486 285 471 l 426 424 b 660 199 572 375 660 331 b 376 -21 660 63 557 -21 "},"š":{"ha":694,"x_min":0,"x_max":0,"o":"m 296 831 l 35 1067 l 132 1157 l 349 956 l 564 1157 l 663 1064 l 404 831 m 376 -21 b 46 235 175 -21 56 74 l 204 235 b 368 114 210 156 278 114 b 496 203 451 114 496 146 b 385 292 496 260 449 271 l 288 324 b 60 542 165 364 60 406 b 336 758 60 672 160 758 b 643 501 507 758 624 668 l 488 501 b 335 624 479 585 419 624 b 221 543 263 624 221 593 b 338 453 221 486 285 471 l 426 424 b 660 199 572 375 660 331 b 376 -21 660 63 557 -21 "},"ş":{"ha":694,"x_min":0,"x_max":0,"o":"m 660 199 b 442 -17 660 79 582 1 l 338 -314 l 210 -289 l 304 -17 b 46 235 147 4 54 94 l 204 235 b 368 114 210 156 278 114 b 496 203 451 114 496 146 b 385 292 496 260 449 271 l 288 324 b 60 542 165 364 60 406 b 336 758 60 672 160 758 b 643 501 507 758 624 668 l 488 501 b 335 624 479 585 419 624 b 221 543 263 624 221 593 b 338 453 221 486 285 471 l 426 424 b 660 199 572 375 660 331 "},"ș":{"ha":694,"x_min":0,"x_max":0,"o":"m 376 -21 b 46 235 175 -21 56 74 l 204 235 b 368 114 210 156 278 114 b 496 203 451 114 496 146 b 385 292 496 260 449 271 l 288 324 b 60 542 165 364 60 406 b 336 758 60 672 160 758 b 643 501 507 758 624 668 l 488 501 b 335 624 479 585 419 624 b 221 543 263 624 221 593 b 338 453 221 486 285 471 l 426 424 b 660 199 572 375 660 331 b 376 -21 660 63 557 -21 m 296 -554 l 171 -515 l 321 -42 l 453 -82 "},"ß":{"ha":832,"x_min":0,"x_max":0,"o":"m 474 -21 b 322 3 415 -21 363 -10 l 322 146 b 451 119 360 131 406 119 b 617 265 551 119 617 176 b 438 421 617 360 544 421 l 365 421 l 365 564 l 438 564 b 585 706 524 564 585 622 b 426 853 585 793 519 853 b 250 660 315 853 250 781 l 250 0 l 86 0 l 86 663 b 431 993 86 864 215 993 b 744 733 615 993 744 885 b 531 506 744 614 661 526 b 782 240 682 479 782 379 b 474 -21 782 88 661 -21 "},"t":{"ha":556,"x_min":0,"x_max":0,"o":"m 411 0 b 165 225 251 0 165 79 l 165 597 l 36 597 l 36 736 l 165 736 l 165 988 l 329 988 l 329 736 l 519 736 l 519 597 l 329 597 l 329 236 b 422 139 329 174 361 139 l 506 139 l 506 0 "},"ŧ":{"ha":556,"x_min":0,"x_max":0,"o":"m 411 0 b 165 225 251 0 165 79 l 165 342 l 36 342 l 36 460 l 165 460 l 165 597 l 36 597 l 36 736 l 165 736 l 165 988 l 329 988 l 329 736 l 519 736 l 519 597 l 329 597 l 329 460 l 519 460 l 519 342 l 329 342 l 329 236 b 422 139 329 174 361 139 l 506 139 l 506 0 "},"ť":{"ha":560,"x_min":0,"x_max":0,"o":"m 376 792 l 376 1132 l 506 1132 l 506 792 m 411 0 b 165 225 251 0 165 79 l 165 597 l 36 597 l 36 736 l 165 736 l 165 988 l 329 988 l 329 736 l 519 736 l 519 597 l 329 597 l 329 236 b 422 139 329 174 361 139 l 506 139 l 506 0 "},"ţ":{"ha":556,"x_min":0,"x_max":0,"o":"m 519 597 l 329 597 l 329 236 b 422 139 329 174 361 139 l 506 139 l 506 0 l 431 0 l 321 -314 l 193 -289 l 300 17 b 165 225 211 47 165 118 l 165 597 l 36 597 l 36 736 l 165 736 l 165 988 l 329 988 l 329 736 l 519 736 "},"ț":{"ha":556,"x_min":0,"x_max":0,"o":"m 411 0 b 165 225 251 0 165 79 l 165 597 l 36 597 l 36 736 l 165 736 l 165 988 l 329 988 l 329 736 l 519 736 l 519 597 l 329 597 l 329 236 b 422 139 329 174 361 139 l 506 139 l 506 0 m 279 -554 l 154 -515 l 304 -42 l 436 -82 "},"u":{"ha":808,"x_min":0,"x_max":0,"o":"m 347 -21 b 71 249 172 -21 71 89 l 71 736 l 235 736 l 235 256 b 381 124 235 172 293 124 b 561 292 493 124 560 197 l 561 736 l 725 736 l 725 0 l 593 0 l 581 107 b 347 -21 538 28 450 -21 "},"ú":{"ha":808,"x_min":0,"x_max":0,"o":"m 375 801 l 286 901 l 676 1219 l 767 1121 m 347 -21 b 71 249 172 -21 71 89 l 71 736 l 235 736 l 235 256 b 381 124 235 172 293 124 b 561 292 493 124 560 197 l 561 736 l 725 736 l 725 0 l 593 0 l 581 107 b 347 -21 538 28 450 -21 "},"ŭ":{"ha":808,"x_min":0,"x_max":0,"o":"m 399 840 b 151 1061 253 840 151 931 l 151 1074 l 292 1074 l 292 1061 b 399 961 292 1001 336 961 b 503 1061 460 961 503 1001 l 503 1074 l 642 1074 l 642 1061 b 399 840 642 931 542 840 m 347 -21 b 71 249 172 -21 71 89 l 71 736 l 235 736 l 235 256 b 381 124 235 172 293 124 b 561 292 493 124 560 197 l 561 736 l 725 736 l 725 0 l 593 0 l 581 107 b 347 -21 538 28 450 -21 "},"û":{"ha":808,"x_min":0,"x_max":0,"o":"m 182 801 l 85 893 l 346 1129 l 454 1129 l 713 896 l 614 801 l 399 1003 m 347 -21 b 71 249 172 -21 71 89 l 71 736 l 235 736 l 235 256 b 381 124 235 172 293 124 b 561 292 493 124 560 197 l 561 736 l 725 736 l 725 0 l 593 0 l 581 107 b 347 -21 538 28 450 -21 "},"ü":{"ha":808,"x_min":0,"x_max":0,"o":"m 253 822 b 151 924 196 822 151 867 b 253 1024 151 979 196 1024 b 353 924 308 1024 353 979 b 253 822 353 867 308 822 m 546 822 b 444 924 490 822 444 867 b 546 1024 444 979 490 1024 b 646 924 601 1024 646 979 b 546 822 646 867 601 822 m 347 -21 b 71 249 172 -21 71 89 l 71 736 l 235 736 l 235 256 b 381 124 235 172 293 124 b 561 292 493 124 560 197 l 561 736 l 725 736 l 725 0 l 593 0 l 581 107 b 347 -21 538 28 450 -21 "},"ù":{"ha":808,"x_min":0,"x_max":0,"o":"m 421 801 l 31 1121 l 119 1219 l 511 901 m 347 -21 b 71 249 172 -21 71 89 l 71 736 l 235 736 l 235 256 b 381 124 235 172 293 124 b 561 292 493 124 560 197 l 561 736 l 725 736 l 725 0 l 593 0 l 581 107 b 347 -21 538 28 450 -21 "},"ű":{"ha":808,"x_min":0,"x_max":0,"o":"m 332 824 l 213 890 l 522 1275 l 638 1210 m 542 786 l 422 853 l 731 1239 l 846 1175 m 347 -21 b 71 249 172 -21 71 89 l 71 736 l 235 736 l 235 256 b 381 124 235 172 293 124 b 561 292 493 124 560 197 l 561 736 l 725 736 l 725 0 l 593 0 l 581 107 b 347 -21 538 28 450 -21 "},"ū":{"ha":808,"x_min":0,"x_max":0,"o":"m 128 861 l 128 990 l 669 990 l 669 861 m 347 -21 b 71 249 172 -21 71 89 l 71 736 l 235 736 l 235 256 b 381 124 235 172 293 124 b 561 292 493 124 560 197 l 561 736 l 725 736 l 725 0 l 593 0 l 581 107 b 347 -21 538 28 450 -21 "},"ų":{"ha":808,"x_min":0,"x_max":0,"o":"m 753 -282 b 647 -300 715 -294 682 -300 b 482 -174 546 -300 482 -250 b 593 1 482 -112 522 -46 l 581 107 b 347 -21 538 28 450 -21 b 71 249 172 -21 71 89 l 71 736 l 235 736 l 235 256 b 381 124 235 172 293 124 b 561 292 493 124 560 197 l 561 736 l 725 736 l 725 0 l 722 0 b 613 -125 651 -39 613 -85 b 667 -168 613 -154 635 -168 b 732 -154 688 -168 707 -162 "},"ů":{"ha":808,"x_min":0,"x_max":0,"o":"m 399 799 b 238 951 307 799 238 865 b 399 1104 238 1039 307 1104 b 560 951 490 1104 560 1039 b 399 799 560 865 490 799 m 399 888 b 464 951 439 888 464 917 b 399 1017 464 986 439 1017 b 333 951 357 1017 333 986 b 399 888 333 917 357 888 m 347 -21 b 71 249 172 -21 71 89 l 71 736 l 235 736 l 235 256 b 381 124 235 172 293 124 b 561 292 493 124 560 197 l 561 736 l 725 736 l 725 0 l 593 0 l 581 107 b 347 -21 538 28 450 -21 "},"ǔ":{"ha":808,"x_min":0,"x_max":0,"o":"m 346 831 l 85 1067 l 182 1157 l 399 956 l 614 1157 l 713 1064 l 454 831 m 347 -21 b 71 249 172 -21 71 89 l 71 736 l 235 736 l 235 256 b 381 124 235 172 293 124 b 561 292 493 124 560 197 l 561 736 l 725 736 l 725 0 l 593 0 l 581 107 b 347 -21 538 28 450 -21 "},"ǘ":{"ha":808,"x_min":0,"x_max":0,"o":"m 375 1068 l 286 1168 l 676 1486 l 767 1388 m 253 822 b 151 924 196 822 151 867 b 253 1024 151 979 196 1024 b 353 924 308 1024 353 979 b 253 822 353 867 308 822 m 546 822 b 444 924 490 822 444 867 b 546 1024 444 979 490 1024 b 646 924 601 1024 646 979 b 546 822 646 867 601 822 m 347 -21 b 71 249 172 -21 71 89 l 71 736 l 235 736 l 235 256 b 381 124 235 172 293 124 b 561 292 493 124 560 197 l 561 736 l 725 736 l 725 0 l 593 0 l 581 107 b 347 -21 538 28 450 -21 "},"ǚ":{"ha":808,"x_min":0,"x_max":0,"o":"m 346 1097 l 85 1333 l 182 1424 l 399 1222 l 614 1424 l 713 1331 l 454 1097 m 253 822 b 151 924 196 822 151 867 b 253 1024 151 979 196 1024 b 353 924 308 1024 353 979 b 253 822 353 867 308 822 m 546 822 b 444 924 490 822 444 867 b 546 1024 444 979 490 1024 b 646 924 601 1024 646 979 b 546 822 646 867 601 822 m 347 -21 b 71 249 172 -21 71 89 l 71 736 l 235 736 l 235 256 b 381 124 235 172 293 124 b 561 292 493 124 560 197 l 561 736 l 725 736 l 725 0 l 593 0 l 581 107 b 347 -21 538 28 450 -21 "},"ǜ":{"ha":808,"x_min":0,"x_max":0,"o":"m 421 1068 l 31 1388 l 119 1486 l 511 1168 m 253 822 b 151 924 196 822 151 867 b 253 1024 151 979 196 1024 b 353 924 308 1024 353 979 b 253 822 353 867 308 822 m 546 822 b 444 924 490 822 444 867 b 546 1024 444 979 490 1024 b 646 924 601 1024 646 979 b 546 822 646 867 601 822 m 347 -21 b 71 249 172 -21 71 89 l 71 736 l 235 736 l 235 256 b 381 124 235 172 293 124 b 561 292 493 124 560 197 l 561 736 l 725 736 l 725 0 l 593 0 l 581 107 b 347 -21 538 28 450 -21 "},"ǖ":{"ha":808,"x_min":0,"x_max":0,"o":"m 128 1128 l 128 1257 l 669 1257 l 669 1128 m 253 822 b 151 924 196 822 151 867 b 253 1024 151 979 196 1024 b 353 924 308 1024 353 979 b 253 822 353 867 308 822 m 546 822 b 444 924 490 822 444 867 b 546 1024 444 979 490 1024 b 646 924 601 1024 646 979 b 546 822 646 867 601 822 m 347 -21 b 71 249 172 -21 71 89 l 71 736 l 235 736 l 235 256 b 381 124 235 172 293 124 b 561 292 493 124 560 197 l 561 736 l 725 736 l 725 0 l 593 0 l 581 107 b 347 -21 538 28 450 -21 "},"v":{"ha":821,"x_min":0,"x_max":0,"o":"m 325 0 l 18 736 l 196 736 l 411 193 l 625 736 l 803 736 l 496 0 "},"w":{"ha":1096,"x_min":0,"x_max":0,"o":"m 236 0 l 18 736 l 186 736 l 335 203 l 481 736 l 617 736 l 764 208 l 910 736 l 1078 736 l 860 0 l 690 0 l 549 503 l 408 0 "},"ẃ":{"ha":1096,"x_min":0,"x_max":0,"o":"m 526 801 l 438 901 l 828 1219 l 918 1121 m 236 0 l 18 736 l 186 736 l 335 203 l 481 736 l 617 736 l 764 208 l 910 736 l 1078 736 l 860 0 l 690 0 l 549 503 l 408 0 "},"ŵ":{"ha":1096,"x_min":0,"x_max":0,"o":"m 332 801 l 235 893 l 496 1129 l 604 1129 l 863 896 l 764 801 l 549 1003 m 236 0 l 18 736 l 186 736 l 335 203 l 481 736 l 617 736 l 764 208 l 910 736 l 1078 736 l 860 0 l 690 0 l 549 503 l 408 0 "},"ẅ":{"ha":1096,"x_min":0,"x_max":0,"o":"m 403 822 b 301 924 346 822 301 867 b 403 1024 301 979 346 1024 b 503 924 458 1024 503 979 b 403 822 503 867 458 822 m 696 822 b 594 924 640 822 594 867 b 696 1024 594 979 640 1024 b 796 924 751 1024 796 979 b 696 822 796 867 751 822 m 236 0 l 18 736 l 186 736 l 335 203 l 481 736 l 617 736 l 764 208 l 910 736 l 1078 736 l 860 0 l 690 0 l 549 503 l 408 0 "},"ẁ":{"ha":1096,"x_min":0,"x_max":0,"o":"m 572 801 l 182 1121 l 271 1219 l 663 901 m 236 0 l 18 736 l 186 736 l 335 203 l 481 736 l 617 736 l 764 208 l 910 736 l 1078 736 l 860 0 l 690 0 l 549 503 l 408 0 "},"x":{"ha":763,"x_min":0,"x_max":0,"o":"m 24 0 l 289 368 l 28 736 l 211 736 l 382 490 l 551 736 l 735 736 l 474 368 l 739 0 l 554 0 l 382 254 l 208 0 "},"y":{"ha":801,"x_min":0,"x_max":0,"o":"m 69 -278 l 69 -139 l 203 -139 b 311 -78 264 -139 297 -117 l 340 0 l 310 0 l 18 736 l 194 736 l 406 178 l 613 736 l 783 736 l 463 -126 b 203 -278 425 -225 347 -278 "},"ý":{"ha":801,"x_min":0,"x_max":0,"o":"m 381 801 l 292 901 l 682 1219 l 772 1121 m 69 -278 l 69 -139 l 203 -139 b 311 -78 264 -139 297 -117 l 340 0 l 310 0 l 18 736 l 194 736 l 406 178 l 613 736 l 783 736 l 463 -126 b 203 -278 425 -225 347 -278 "},"ŷ":{"ha":801,"x_min":0,"x_max":0,"o":"m 188 801 l 90 893 l 351 1129 l 460 1129 l 718 896 l 619 801 l 404 1003 m 69 -278 l 69 -139 l 203 -139 b 311 -78 264 -139 297 -117 l 340 0 l 310 0 l 18 736 l 194 736 l 406 178 l 613 736 l 783 736 l 463 -126 b 203 -278 425 -225 347 -278 "},"ÿ":{"ha":801,"x_min":0,"x_max":0,"o":"m 258 822 b 157 924 201 822 157 867 b 258 1024 157 979 201 1024 b 358 924 314 1024 358 979 b 258 822 358 867 314 822 m 551 822 b 450 924 496 822 450 867 b 551 1024 450 979 496 1024 b 651 924 607 1024 651 979 b 551 822 651 867 607 822 m 69 -278 l 69 -139 l 203 -139 b 311 -78 264 -139 297 -117 l 340 0 l 310 0 l 18 736 l 194 736 l 406 178 l 613 736 l 783 736 l 463 -126 b 203 -278 425 -225 347 -278 "},"ỳ":{"ha":801,"x_min":0,"x_max":0,"o":"m 426 801 l 36 1121 l 125 1219 l 517 901 m 69 -278 l 69 -139 l 203 -139 b 311 -78 264 -139 297 -117 l 340 0 l 310 0 l 18 736 l 194 736 l 406 178 l 613 736 l 783 736 l 463 -126 b 203 -278 425 -225 347 -278 "},"z":{"ha":693,"x_min":0,"x_max":0,"o":"m 56 0 l 56 150 l 450 592 l 68 592 l 68 736 l 633 736 l 633 586 l 238 146 l 639 146 l 639 0 "},"ź":{"ha":693,"x_min":0,"x_max":0,"o":"m 321 801 l 232 901 l 622 1219 l 713 1121 m 56 0 l 56 150 l 450 592 l 68 592 l 68 736 l 633 736 l 633 586 l 238 146 l 639 146 l 639 0 "},"ž":{"ha":693,"x_min":0,"x_max":0,"o":"m 290 831 l 29 1067 l 126 1157 l 343 956 l 558 1157 l 657 1064 l 399 831 m 56 0 l 56 150 l 450 592 l 68 592 l 68 736 l 633 736 l 633 586 l 238 146 l 639 146 l 639 0 "},"ż":{"ha":693,"x_min":0,"x_max":0,"o":"m 344 822 b 243 924 286 822 243 865 b 344 1024 243 979 286 1024 b 446 924 403 1024 446 979 b 344 822 446 865 403 822 m 56 0 l 56 150 l 450 592 l 68 592 l 68 736 l 633 736 l 633 586 l 238 146 l 639 146 l 639 0 "},"ﬁ":{"ha":835,"x_min":0,"x_max":0,"o":"m 669 833 b 564 940 610 833 564 881 b 669 1046 564 1000 610 1046 b 775 940 731 1046 775 1000 b 669 833 775 881 731 833 m 165 0 l 165 597 l 36 597 l 36 736 l 165 736 l 165 828 b 400 1042 165 967 247 1042 l 497 1042 l 497 903 l 411 903 b 329 817 358 903 329 872 l 329 736 l 753 736 l 753 0 l 588 0 l 588 597 l 329 597 l 329 0 "},"ﬂ":{"ha":853,"x_min":0,"x_max":0,"o":"m 165 0 l 165 597 l 36 597 l 36 736 l 165 736 l 165 828 b 400 1042 165 967 247 1042 l 768 1042 l 768 0 l 603 0 l 603 903 l 411 903 b 329 817 358 903 329 872 l 329 736 l 543 736 l 543 597 l 329 597 l 329 0 "},"ª":{"ha":638,"x_min":0,"x_max":0,"o":"m 253 424 b 50 588 132 424 50 486 b 276 747 50 714 176 736 b 419 800 360 757 419 757 b 318 882 419 849 381 882 b 183 794 242 882 193 849 l 61 794 b 322 988 72 910 174 988 b 540 794 460 988 540 913 l 540 563 b 567 538 540 547 550 538 l 596 538 l 596 433 l 550 433 b 440 500 490 433 451 458 b 435 515 438 506 436 510 b 253 424 401 458 340 424 m 275 522 b 419 640 358 522 419 572 l 419 700 b 293 654 401 665 349 661 b 175 588 222 647 175 636 b 275 522 175 546 214 522 "},"º":{"ha":633,"x_min":0,"x_max":0,"o":"m 317 421 b 44 708 144 421 44 543 b 317 988 44 883 163 988 b 589 708 488 988 589 865 b 317 421 589 528 475 421 m 317 528 b 465 708 410 528 465 604 b 317 881 465 813 407 881 b 168 708 226 881 168 813 b 317 528 168 594 232 528 "},"₀":{"ha":561,"x_min":0,"x_max":0,"o":"m 281 -151 b 57 128 144 -151 57 -43 b 281 414 57 303 144 414 b 504 136 417 414 504 307 b 281 -151 504 -40 417 -151 m 281 -44 b 382 133 343 -46 382 24 b 282 307 382 242 344 308 b 181 132 219 308 181 242 b 281 -44 181 21 218 -46 "},"₁":{"ha":389,"x_min":0,"x_max":0,"o":"m 165 -139 l 165 243 b 51 189 144 201 96 189 l 32 189 l 32 314 l 51 314 b 165 393 124 314 165 339 l 165 401 l 288 401 l 288 -139 "},"₂":{"ha":519,"x_min":0,"x_max":0,"o":"m 72 -139 l 72 -89 b 339 242 72 108 339 125 b 269 307 339 279 313 307 b 179 219 214 307 183 269 l 56 219 b 276 414 69 340 153 414 b 461 253 386 414 461 347 b 221 -32 461 94 221 47 l 465 -32 l 465 -139 "},"₃":{"ha":529,"x_min":0,"x_max":0,"o":"m 272 -151 b 42 42 142 -151 49 -85 l 164 42 b 275 -47 169 -14 211 -47 b 363 26 328 -47 363 -21 b 271 92 363 67 328 92 l 183 92 l 183 185 l 269 185 b 344 247 318 185 344 213 b 269 311 344 278 324 311 b 178 232 221 311 183 279 l 54 232 b 274 414 72 358 167 414 b 461 267 385 414 461 354 b 361 146 461 208 424 165 b 482 10 440 128 482 76 b 272 -151 482 -86 397 -151 "},"₄":{"ha":533,"x_min":0,"x_max":0,"o":"m 300 -139 l 300 -36 l 44 -36 l 44 76 l 301 401 l 421 401 l 421 65 l 507 65 l 507 -36 l 421 -36 l 421 -139 m 146 65 l 300 65 l 300 260 "},"₅":{"ha":533,"x_min":0,"x_max":0,"o":"m 272 -151 b 58 31 154 -151 71 -82 l 183 31 b 274 -47 190 -11 222 -47 b 361 42 325 -47 361 -10 b 276 126 361 92 326 126 b 207 100 247 126 224 115 l 81 100 l 124 401 l 461 401 l 461 294 l 218 294 l 203 181 b 317 217 233 206 271 217 b 479 44 413 217 479 147 b 272 -151 479 -72 396 -151 "},"₆":{"ha":550,"x_min":0,"x_max":0,"o":"m 290 -151 b 57 131 147 -151 57 -42 b 297 414 57 300 153 414 b 501 240 411 414 490 347 l 379 240 b 296 308 374 275 347 308 b 172 132 217 308 174 238 b 319 218 199 186 253 218 b 496 40 419 218 496 149 b 290 -151 496 -74 410 -151 m 292 -49 b 379 42 346 -49 379 -11 b 293 129 379 90 346 129 b 203 39 238 129 203 90 b 292 -49 203 -11 236 -49 "},"₇":{"ha":478,"x_min":0,"x_max":0,"o":"m 81 -139 l 332 294 l 31 294 l 31 401 l 450 401 l 450 274 l 222 -139 "},"₈":{"ha":544,"x_min":0,"x_max":0,"o":"m 274 -151 b 49 11 142 -151 49 -85 b 164 144 49 74 96 124 b 72 268 110 169 72 215 b 272 414 72 351 151 414 b 472 265 389 414 472 356 b 383 144 472 214 439 168 b 496 11 453 125 496 76 b 274 -151 496 -85 406 -151 m 274 188 b 360 251 325 188 360 214 b 274 314 360 289 325 314 b 188 251 222 314 188 289 b 274 188 188 214 222 188 m 274 -49 b 375 26 335 -49 375 -18 b 274 103 375 74 335 103 b 172 26 213 103 172 74 b 274 -49 172 -18 213 -49 "},"₉":{"ha":535,"x_min":0,"x_max":0,"o":"m 256 -151 b 49 18 139 -151 57 -85 l 171 18 b 258 -47 175 -21 208 -47 b 364 121 332 -47 368 22 b 242 47 347 75 299 47 b 51 225 131 47 51 118 b 251 414 51 338 135 414 b 478 131 388 414 478 311 b 256 -151 478 -35 404 -151 m 256 140 b 343 228 308 140 343 176 b 256 313 343 278 308 313 b 167 228 203 313 167 278 b 256 140 167 176 203 140 "},"⁰":{"ha":561,"x_min":0,"x_max":0,"o":"m 281 558 b 57 838 144 558 57 667 b 281 1124 57 1013 144 1124 b 504 846 417 1124 504 1017 b 281 558 504 671 417 558 m 281 665 b 382 843 343 665 382 733 b 282 1017 382 951 344 1018 b 181 842 219 1018 181 951 b 281 665 181 731 218 665 "},"¹":{"ha":389,"x_min":0,"x_max":0,"o":"m 165 572 l 165 953 b 51 899 144 911 96 899 l 32 899 l 32 1024 l 51 1024 b 165 1103 124 1024 165 1049 l 165 1111 l 288 1111 l 288 572 "},"²":{"ha":519,"x_min":0,"x_max":0,"o":"m 72 572 l 72 622 b 339 951 72 818 339 835 b 269 1017 339 989 313 1017 b 179 929 214 1017 183 979 l 56 929 b 276 1124 69 1050 153 1124 b 461 963 386 1124 461 1057 b 221 678 461 804 221 757 l 465 678 l 465 572 "},"³":{"ha":529,"x_min":0,"x_max":0,"o":"m 272 558 b 42 751 142 558 49 626 l 164 751 b 275 664 169 697 211 664 b 363 736 328 664 363 690 b 271 801 363 776 328 801 l 183 801 l 183 894 l 269 894 b 344 957 318 894 344 922 b 269 1021 344 988 324 1021 b 178 942 221 1021 183 989 l 54 942 b 274 1124 72 1068 167 1124 b 461 976 385 1124 461 1064 b 361 856 461 918 424 875 b 482 719 440 838 482 786 b 272 558 482 624 397 558 "},"⁴":{"ha":533,"x_min":0,"x_max":0,"o":"m 300 572 l 300 674 l 44 674 l 44 786 l 301 1111 l 421 1111 l 421 775 l 507 775 l 507 674 l 421 674 l 421 572 m 146 775 l 300 775 l 300 969 "},"⁵":{"ha":533,"x_min":0,"x_max":0,"o":"m 272 558 b 58 740 154 558 71 629 l 183 740 b 274 664 190 700 222 664 b 361 751 325 664 361 700 b 276 836 361 801 326 836 b 207 810 247 836 224 825 l 81 810 l 124 1111 l 461 1111 l 461 1004 l 218 1004 l 203 890 b 317 926 233 915 271 926 b 479 754 413 926 479 857 b 272 558 479 639 396 558 "},"⁶":{"ha":550,"x_min":0,"x_max":0,"o":"m 290 558 b 57 840 147 558 57 669 b 297 1124 57 1010 153 1124 b 501 950 411 1124 490 1057 l 379 950 b 296 1018 374 985 347 1018 b 172 842 217 1018 174 947 b 319 928 199 896 253 928 b 496 750 419 928 496 858 b 290 558 496 636 410 558 m 292 661 b 379 751 346 661 379 700 b 293 839 379 800 346 839 b 203 749 238 839 203 800 b 292 661 203 699 236 661 "},"⁷":{"ha":478,"x_min":0,"x_max":0,"o":"m 81 572 l 332 1004 l 31 1004 l 31 1111 l 450 1111 l 450 983 l 222 572 "},"⁸":{"ha":544,"x_min":0,"x_max":0,"o":"m 274 558 b 49 721 142 558 49 625 b 164 854 49 783 96 833 b 72 978 110 879 72 925 b 272 1124 72 1061 151 1124 b 472 975 389 1124 472 1065 b 383 854 472 924 439 878 b 496 721 453 835 496 786 b 274 558 496 625 406 558 m 274 897 b 360 961 325 897 360 924 b 274 1024 360 999 325 1024 b 188 961 222 1024 188 999 b 274 897 188 924 222 897 m 274 663 b 375 736 335 663 375 693 b 274 813 375 783 335 813 b 172 736 213 813 172 783 b 274 663 172 693 213 663 "},"⁹":{"ha":535,"x_min":0,"x_max":0,"o":"m 256 558 b 49 728 139 558 57 625 l 171 728 b 258 663 175 690 208 663 b 364 831 332 663 368 732 b 242 757 347 785 299 757 b 51 935 131 757 51 828 b 251 1124 51 1047 135 1124 b 478 840 388 1124 478 1021 b 256 558 478 676 404 558 m 256 850 b 343 938 308 850 343 886 b 256 1022 343 988 308 1022 b 167 938 203 1022 167 988 b 256 850 167 886 203 850 "},"⁄":{"ha":904,"x_min":0,"x_max":0,"o":"m 158 -51 l 39 10 l 746 1031 l 865 971 "},"½":{"ha":1168,"x_min":0,"x_max":0,"o":"m 233 -51 l 114 10 l 821 1031 l 940 971 m 165 433 l 165 815 b 51 761 144 772 96 761 l 32 761 l 32 886 l 51 886 b 165 964 124 886 165 910 l 165 972 l 288 972 l 288 433 m 719 0 l 719 50 b 988 381 719 247 988 264 b 918 446 988 417 961 446 b 826 357 863 446 832 407 l 704 357 b 925 553 717 478 801 553 b 1108 392 1035 553 1108 486 b 868 107 1108 232 868 185 l 1113 107 l 1113 0 "},"¼":{"ha":1099,"x_min":0,"x_max":0,"o":"m 233 -51 l 114 10 l 821 1031 l 940 971 m 165 433 l 165 815 b 51 761 144 772 96 761 l 32 761 l 32 886 l 51 886 b 165 964 124 886 165 910 l 165 972 l 288 972 l 288 433 m 865 0 l 865 103 l 610 103 l 610 215 l 867 539 l 986 539 l 986 204 l 1072 204 l 1072 103 l 986 103 l 986 0 m 711 204 l 865 204 l 865 397 "},"¾":{"ha":1244,"x_min":0,"x_max":0,"o":"m 379 -51 l 260 10 l 967 1031 l 1086 971 m 265 421 b 35 613 135 421 42 488 l 157 613 b 268 525 163 558 204 525 b 356 597 321 525 356 551 b 264 664 356 638 321 664 l 176 664 l 176 756 l 263 756 b 338 819 311 756 338 783 b 263 882 338 850 317 882 b 171 804 214 882 176 851 l 47 804 b 267 986 65 931 160 986 b 454 838 378 986 454 925 b 354 717 454 781 417 736 b 475 582 433 700 475 649 b 265 421 475 486 390 421 m 1011 0 l 1011 103 l 756 103 l 756 215 l 1013 539 l 1132 539 l 1132 204 l 1218 204 l 1218 103 l 1132 103 l 1132 0 m 857 204 l 1011 204 l 1011 397 "},"⓪":{"ha":1221,"x_min":0,"x_max":0,"o":"m 611 -67 b 58 486 296 -67 58 161 b 611 1039 58 801 285 1039 b 1163 486 925 1039 1163 813 b 611 -67 1163 172 936 -67 m 611 42 b 1046 486 858 42 1046 224 b 611 931 1046 740 867 931 b 176 486 364 931 176 749 b 611 42 176 233 354 42 m 611 204 b 388 483 475 204 388 313 b 611 769 388 657 475 769 b 835 490 747 769 835 661 b 611 204 835 315 747 204 m 611 311 b 713 488 674 310 713 378 b 613 663 713 596 675 663 b 511 488 550 663 511 597 b 611 311 511 376 549 310 "},"①":{"ha":1221,"x_min":0,"x_max":0,"o":"m 611 -67 b 58 486 296 -67 58 161 b 611 1039 58 801 285 1039 b 1163 486 925 1039 1163 813 b 611 -67 1163 172 936 -67 m 611 42 b 1046 486 858 42 1046 224 b 611 931 1046 740 867 931 b 176 486 364 931 176 749 b 611 42 176 233 354 42 m 589 217 l 589 599 b 475 544 567 556 519 544 l 454 544 l 454 669 l 475 669 b 589 747 547 669 589 693 l 589 756 l 711 756 l 711 217 "},"②":{"ha":1221,"x_min":0,"x_max":0,"o":"m 611 -67 b 58 486 296 -67 58 161 b 611 1039 58 801 285 1039 b 1163 486 925 1039 1163 813 b 611 -67 1163 172 936 -67 m 611 42 b 1046 486 858 42 1046 224 b 611 931 1046 740 867 931 b 176 486 364 931 176 749 b 611 42 176 233 354 42 m 424 217 l 424 267 b 692 597 424 464 692 481 b 622 663 692 633 665 663 b 531 574 567 663 536 624 l 408 574 b 629 769 421 694 506 769 b 813 608 739 769 813 703 b 572 324 813 449 572 401 l 817 324 l 817 217 "},"③":{"ha":1221,"x_min":0,"x_max":0,"o":"m 611 -67 b 58 486 296 -67 58 161 b 611 1039 58 801 285 1039 b 1163 486 925 1039 1163 813 b 611 -67 1163 172 936 -67 m 611 42 b 1046 486 858 42 1046 224 b 611 931 1046 740 867 931 b 176 486 364 931 176 749 b 611 42 176 233 354 42 m 622 204 b 392 396 492 204 399 271 l 514 396 b 625 308 519 342 561 308 b 713 381 678 308 713 335 b 621 447 713 421 678 447 l 533 447 l 533 539 l 619 539 b 694 603 668 539 694 567 b 619 665 694 633 674 665 b 528 588 571 665 533 635 l 404 588 b 624 769 422 714 517 769 b 811 621 735 769 811 708 b 711 500 811 564 774 519 b 832 365 790 483 832 432 b 622 204 832 269 747 204 "},"④":{"ha":1221,"x_min":0,"x_max":0,"o":"m 611 -67 b 58 486 296 -67 58 161 b 611 1039 58 801 285 1039 b 1163 486 925 1039 1163 813 b 611 -67 1163 172 936 -67 m 611 42 b 1046 486 858 42 1046 224 b 611 931 1046 740 867 931 b 176 486 364 931 176 749 b 611 42 176 233 354 42 m 622 217 l 622 319 l 368 319 l 368 432 l 624 756 l 744 756 l 744 421 l 829 421 l 829 319 l 744 319 l 744 217 m 469 421 l 622 421 l 622 614 "},"⑤":{"ha":1221,"x_min":0,"x_max":0,"o":"m 611 -67 b 58 486 296 -67 58 161 b 611 1039 58 801 285 1039 b 1163 486 925 1039 1163 813 b 611 -67 1163 172 936 -67 m 611 42 b 1046 486 858 42 1046 224 b 611 931 1046 740 867 931 b 176 486 364 931 176 749 b 611 42 176 233 354 42 m 614 204 b 401 386 497 204 413 274 l 526 386 b 617 308 532 344 565 308 b 703 397 667 308 703 346 b 619 481 703 446 668 481 b 549 454 590 481 567 471 l 424 454 l 465 756 l 804 756 l 804 650 l 561 650 l 544 535 b 658 571 575 560 614 571 b 822 399 756 571 822 501 b 614 204 822 283 738 204 "},"⑥":{"ha":1221,"x_min":0,"x_max":0,"o":"m 611 -67 b 58 486 296 -67 58 161 b 611 1039 58 801 285 1039 b 1163 486 925 1039 1163 813 b 611 -67 1163 172 936 -67 m 611 42 b 1046 486 858 42 1046 224 b 611 931 1046 740 867 931 b 176 486 364 931 176 749 b 611 42 176 233 354 42 m 615 204 b 382 485 472 204 382 314 b 622 769 382 654 478 769 b 826 596 736 769 815 701 l 704 596 b 621 664 699 631 672 664 b 497 486 542 664 499 593 b 644 572 524 540 578 572 b 821 396 744 572 821 504 b 615 204 821 282 735 204 m 617 307 b 704 396 671 307 704 344 b 618 485 704 446 671 485 b 528 394 563 485 528 446 b 617 307 528 344 561 307 "},"⑦":{"ha":1221,"x_min":0,"x_max":0,"o":"m 611 -67 b 58 486 296 -67 58 161 b 611 1039 58 801 285 1039 b 1163 486 925 1039 1163 813 b 611 -67 1163 172 936 -67 m 611 42 b 1046 486 858 42 1046 224 b 611 931 1046 740 867 931 b 176 486 364 931 176 749 b 611 42 176 233 354 42 m 458 217 l 710 650 l 408 650 l 408 756 l 828 756 l 828 628 l 600 217 "},"⑧":{"ha":1221,"x_min":0,"x_max":0,"o":"m 611 -67 b 58 486 296 -67 58 161 b 611 1039 58 801 285 1039 b 1163 486 925 1039 1163 813 b 611 -67 1163 172 936 -67 m 611 42 b 1046 486 858 42 1046 224 b 611 931 1046 740 867 931 b 176 486 364 931 176 749 b 611 42 176 233 354 42 m 613 204 b 388 365 481 204 388 271 b 503 500 388 429 435 479 b 411 624 449 524 411 571 b 611 769 411 707 490 769 b 811 619 728 769 811 710 b 722 500 811 569 778 524 b 835 365 792 479 835 431 b 613 204 835 271 744 204 m 613 543 b 699 607 664 543 699 569 b 613 669 699 643 664 669 b 526 607 561 669 526 643 b 613 543 526 569 561 543 m 613 307 b 714 382 674 307 714 338 b 613 458 714 428 674 458 b 511 382 551 458 511 428 b 613 307 511 338 551 307 "},"⑨":{"ha":1221,"x_min":0,"x_max":0,"o":"m 611 -67 b 58 486 296 -67 58 161 b 611 1039 58 801 285 1039 b 1163 486 925 1039 1163 813 b 611 -67 1163 172 936 -67 m 611 42 b 1046 486 858 42 1046 224 b 611 931 1046 740 867 931 b 176 486 364 931 176 749 b 611 42 176 233 354 42 m 617 204 b 410 374 499 204 417 271 l 532 374 b 619 308 535 335 568 308 b 724 476 692 308 729 376 b 601 403 708 431 658 403 b 413 581 492 403 413 474 b 613 769 413 692 496 769 b 839 485 747 769 839 665 b 617 204 839 321 765 204 m 615 496 b 704 582 668 496 704 532 b 617 668 704 633 668 668 b 528 582 564 668 528 632 b 615 496 528 532 563 496 "},"⓿":{"ha":1221,"x_min":0,"x_max":0,"o":"m 611 -67 b 1163 486 936 -67 1163 172 b 611 1039 1163 813 925 1039 b 58 486 285 1039 58 801 b 611 -67 58 161 296 -67 m 604 204 b 381 483 468 204 381 313 b 604 769 381 657 468 769 b 828 490 740 769 828 661 b 604 204 828 315 740 204 m 604 311 b 706 488 667 310 706 378 b 606 663 706 596 668 663 b 504 488 543 663 504 597 b 604 311 504 376 542 310 "},"❶":{"ha":1221,"x_min":0,"x_max":0,"o":"m 611 -67 b 1163 486 936 -67 1163 174 b 611 1039 1163 813 924 1039 b 58 486 285 1039 58 800 b 611 -67 58 161 297 -67 m 589 217 l 589 599 b 475 544 567 556 519 544 l 454 544 l 454 669 l 475 669 b 589 747 547 669 589 693 l 589 756 l 711 756 l 711 217 "},"❷":{"ha":1221,"x_min":0,"x_max":0,"o":"m 611 -67 b 1163 486 936 -67 1163 174 b 611 1039 1163 813 924 1039 b 58 486 285 1039 58 800 b 611 -67 58 161 297 -67 m 424 217 l 424 267 b 692 597 424 464 692 481 b 622 663 692 633 665 663 b 531 574 567 663 536 624 l 408 574 b 629 769 421 694 506 769 b 813 608 739 769 813 703 b 572 324 813 449 572 401 l 817 324 l 817 217 "},"❸":{"ha":1221,"x_min":0,"x_max":0,"o":"m 611 -67 b 1163 486 936 -67 1163 174 b 611 1039 1163 813 924 1039 b 58 486 285 1039 58 800 b 611 -67 58 161 297 -67 m 622 204 b 392 396 492 204 399 271 l 514 396 b 625 308 519 342 561 308 b 713 381 678 308 713 335 b 621 447 713 421 678 447 l 533 447 l 533 539 l 619 539 b 694 603 668 539 694 567 b 619 665 694 633 674 665 b 528 588 571 665 533 635 l 404 588 b 624 769 422 714 517 769 b 811 621 735 769 811 708 b 711 500 811 564 774 519 b 832 365 790 483 832 432 b 622 204 832 269 747 204 "},"❹":{"ha":1221,"x_min":0,"x_max":0,"o":"m 611 -67 b 1163 486 936 -67 1163 174 b 611 1039 1163 813 924 1039 b 58 486 285 1039 58 800 b 611 -67 58 161 297 -67 m 622 217 l 622 319 l 368 319 l 368 432 l 624 756 l 744 756 l 744 421 l 829 421 l 829 319 l 744 319 l 744 217 m 469 421 l 622 421 l 622 614 "},"❺":{"ha":1221,"x_min":0,"x_max":0,"o":"m 611 -67 b 1163 486 936 -67 1163 174 b 611 1039 1163 813 924 1039 b 58 486 285 1039 58 800 b 611 -67 58 161 297 -67 m 614 204 b 401 386 497 204 413 274 l 526 386 b 617 308 532 344 565 308 b 703 397 667 308 703 346 b 619 481 703 446 668 481 b 549 454 590 481 567 471 l 424 454 l 465 756 l 804 756 l 804 650 l 561 650 l 544 535 b 658 571 575 560 614 571 b 822 399 756 571 822 501 b 614 204 822 283 738 204 "},"❻":{"ha":1221,"x_min":0,"x_max":0,"o":"m 611 -67 b 1163 486 936 -67 1163 174 b 611 1039 1163 813 924 1039 b 58 486 285 1039 58 800 b 611 -67 58 161 297 -67 m 615 204 b 382 485 472 204 382 314 b 622 769 382 654 478 769 b 826 596 736 769 815 701 l 704 596 b 621 664 699 631 672 664 b 497 486 542 664 499 593 b 644 572 524 540 578 572 b 821 396 744 572 821 504 b 615 204 821 282 735 204 m 617 307 b 704 396 671 307 704 344 b 618 485 704 446 671 485 b 528 394 563 485 528 446 b 617 307 528 344 561 307 "},"❼":{"ha":1221,"x_min":0,"x_max":0,"o":"m 611 -67 b 1163 486 936 -67 1163 174 b 611 1039 1163 813 924 1039 b 58 486 285 1039 58 800 b 611 -67 58 161 297 -67 m 458 217 l 710 650 l 408 650 l 408 756 l 828 756 l 828 628 l 600 217 "},"❽":{"ha":1221,"x_min":0,"x_max":0,"o":"m 611 -67 b 1163 486 936 -67 1163 174 b 611 1039 1163 813 924 1039 b 58 486 285 1039 58 800 b 611 -67 58 161 297 -67 m 613 204 b 388 365 481 204 388 271 b 503 500 388 429 435 479 b 411 624 449 524 411 571 b 611 769 411 707 490 769 b 811 619 728 769 811 710 b 722 500 811 569 778 524 b 835 365 792 479 835 431 b 613 204 835 271 744 204 m 613 543 b 699 607 664 543 699 569 b 613 669 699 643 664 669 b 526 607 561 669 526 643 b 613 543 526 569 561 543 m 613 307 b 714 382 674 307 714 338 b 613 458 714 428 674 458 b 511 382 551 458 511 428 b 613 307 511 338 551 307 "},"❾":{"ha":1221,"x_min":0,"x_max":0,"o":"m 611 -67 b 1163 486 936 -67 1163 174 b 611 1039 1163 813 924 1039 b 58 486 285 1039 58 800 b 611 -67 58 161 297 -67 m 617 204 b 410 374 499 204 417 271 l 532 374 b 619 308 535 335 568 308 b 724 476 692 308 729 376 b 601 403 708 431 658 403 b 413 581 492 403 413 474 b 613 769 413 692 496 769 b 839 485 747 769 839 665 b 617 204 839 321 765 204 m 615 496 b 704 582 668 496 704 532 b 617 668 704 633 668 668 b 528 582 564 668 528 632 b 615 496 528 532 563 496 "},".":{"ha":318,"x_min":0,"x_max":0,"o":"m 158 -18 b 53 89 99 -18 53 28 b 158 194 53 149 99 194 b 265 89 219 194 265 149 b 158 -18 265 28 219 -18 "},",":{"ha":343,"x_min":0,"x_max":0,"o":"m 133 -276 l 7 -237 l 160 246 l 292 206 "},":":{"ha":318,"x_min":0,"x_max":0,"o":"m 158 546 b 53 653 99 546 53 592 b 158 758 53 713 99 758 b 265 653 219 758 265 713 b 158 546 265 592 219 546 m 158 -18 b 53 89 99 -18 53 28 b 158 194 53 149 99 194 b 265 89 219 194 265 149 b 158 -18 265 28 219 -18 "},";":{"ha":356,"x_min":0,"x_max":0,"o":"m 189 546 b 83 653 129 546 83 592 b 189 758 83 713 129 758 b 296 653 250 758 296 713 b 189 546 296 592 250 546 m 133 -276 l 8 -237 l 161 246 l 293 206 "},"…":{"ha":931,"x_min":0,"x_max":0,"o":"m 158 -18 b 53 89 99 -18 53 28 b 158 194 53 149 99 194 b 265 89 219 194 265 149 b 158 -18 265 28 219 -18 m 465 -18 b 358 89 404 -18 358 28 b 465 194 358 149 404 194 b 572 89 526 194 572 149 b 465 -18 572 28 526 -18 m 771 -18 b 665 89 711 -18 665 28 b 771 194 665 149 711 194 b 878 89 832 194 878 149 b 771 -18 878 28 832 -18 "},"!":{"ha":367,"x_min":0,"x_max":0,"o":"m 101 278 l 101 1042 l 267 1042 l 267 278 m 183 -18 b 76 89 122 -18 76 28 b 183 194 76 149 122 194 b 290 89 244 194 290 149 b 183 -18 290 28 244 -18 "},"¡":{"ha":367,"x_min":0,"x_max":0,"o":"m 183 546 b 76 653 122 546 76 592 b 183 758 76 713 122 758 b 290 653 244 758 290 713 b 183 546 290 592 244 546 m 101 -301 l 101 463 l 267 463 l 267 -301 "},"?":{"ha":792,"x_min":0,"x_max":0,"o":"m 306 263 l 306 318 b 567 711 306 542 567 554 b 408 843 567 786 506 843 b 222 650 304 843 224 775 l 47 650 b 410 993 63 869 211 993 b 733 717 608 993 733 871 b 468 318 733 488 468 478 l 468 263 m 388 -18 b 281 89 326 -18 281 28 b 388 194 281 149 326 194 b 494 89 449 194 494 149 b 388 -18 494 28 449 -18 "},"¿":{"ha":792,"x_min":0,"x_max":0,"o":"m 404 758 b 511 653 465 758 511 713 b 404 546 511 592 465 546 b 297 653 343 546 297 592 b 404 758 297 713 343 758 m 486 478 l 486 424 b 225 31 486 199 225 188 b 383 -103 225 -46 286 -103 b 569 90 488 -103 568 -35 l 744 90 b 382 -253 729 -129 581 -253 b 58 25 183 -253 58 -131 b 324 424 58 254 324 263 l 324 478 "},"·":{"ha":340,"x_min":0,"x_max":0,"o":"m 169 335 b 64 440 110 335 64 381 b 169 547 64 501 110 547 b 276 440 231 547 276 501 b 169 335 276 381 231 335 "},"•":{"ha":454,"x_min":0,"x_max":0,"o":"m 226 278 b 64 440 135 278 64 349 b 226 604 64 533 135 604 b 390 440 319 604 390 533 b 226 278 390 349 319 278 "},"*":{"ha":692,"x_min":0,"x_max":0,"o":"m 288 414 l 288 618 l 99 508 l 43 610 l 232 721 l 43 829 l 99 931 l 288 821 l 288 1025 l 404 1025 l 404 821 l 594 931 l 649 829 l 461 721 l 649 611 l 593 510 l 404 619 l 404 414 "},"#":{"ha":1149,"x_min":0,"x_max":0,"o":"m 347 -32 l 208 0 l 264 233 l 44 233 l 44 360 l 294 360 l 354 603 l 133 603 l 133 729 l 385 729 l 453 1013 l 592 981 l 532 729 l 738 729 l 806 1013 l 946 981 l 885 729 l 1104 729 l 1104 603 l 854 603 l 796 360 l 1015 360 l 1015 233 l 764 233 l 700 -32 l 561 0 l 618 233 l 411 233 m 442 360 l 649 360 l 707 603 l 500 603 "},"/":{"ha":518,"x_min":0,"x_max":0,"o":"m 153 -164 l 6 -119 l 371 1103 l 521 1061 "},"\\":{"ha":518,"x_min":0,"x_max":0,"o":"m 367 -164 l -3 1061 l 149 1103 l 514 -119 "},"(":{"ha":453,"x_min":0,"x_max":0,"o":"m 310 -193 b 89 425 171 -39 89 194 b 310 1064 89 654 169 897 l 436 1015 b 238 425 310 865 236 643 b 439 -149 238 214 311 -4 "},")":{"ha":453,"x_min":0,"x_max":0,"o":"m 14 -149 b 215 425 142 -4 215 214 b 17 1015 217 643 143 865 l 143 1064 b 364 425 283 897 364 654 b 143 -193 364 194 282 -39 "},"{":{"ha":499,"x_min":0,"x_max":0,"o":"m 368 -178 b 157 18 239 -178 157 -103 l 157 293 b 40 383 157 350 115 383 l 40 499 b 157 588 114 499 157 531 l 157 850 b 381 1061 157 986 235 1061 l 475 1061 l 475 935 l 386 935 b 300 846 331 935 300 904 l 300 575 b 196 439 300 510 269 460 b 300 301 260 421 300 374 l 300 32 b 385 -51 300 -22 331 -51 l 475 -51 l 475 -178 "},"}":{"ha":499,"x_min":0,"x_max":0,"o":"m 24 -178 l 24 -51 l 114 -51 b 199 32 168 -51 199 -22 l 199 301 b 303 439 199 374 239 421 b 199 575 231 460 199 510 l 199 846 b 114 935 199 904 168 935 l 24 935 l 24 1061 l 118 1061 b 343 850 264 1061 343 986 l 343 588 b 460 499 343 531 386 499 l 460 383 b 343 293 385 383 343 350 l 343 18 b 132 -178 343 -103 260 -178 "},"[":{"ha":482,"x_min":0,"x_max":0,"o":"m 119 -178 l 119 1061 l 458 1061 l 458 935 l 263 935 l 263 -51 l 458 -51 l 458 -178 "},"]":{"ha":482,"x_min":0,"x_max":0,"o":"m 363 -178 l 24 -178 l 24 -51 l 219 -51 l 219 935 l 24 935 l 24 1061 l 363 1061 "},"【":{"ha":508,"x_min":0,"x_max":0,"o":"m 119 -126 l 119 1122 l 449 1122 l 449 1106 b 246 492 314 931 244 710 b 449 -110 247 282 317 65 l 449 -126 "},"】":{"ha":508,"x_min":0,"x_max":0,"o":"m 390 -126 l 61 -126 l 61 -110 b 264 492 193 65 263 282 b 61 1106 265 710 196 931 l 61 1122 l 390 1122 "},"-":{"ha":724,"x_min":0,"x_max":0,"o":"m 51 358 l 51 493 l 672 493 l 672 358 "},"–":{"ha":750,"x_min":0,"x_max":0,"o":"m 51 358 l 51 493 l 700 493 l 700 358 "},"—":{"ha":1231,"x_min":0,"x_max":0,"o":"m 51 358 l 51 493 l 1179 493 l 1179 358 "},"_":{"ha":751,"x_min":0,"x_max":0,"o":"m 51 -156 l 51 -21 l 700 -21 l 700 -156 "},"〜":{"ha":1692,"x_min":0,"x_max":0,"o":"m 1219 279 b 488 464 929 279 761 464 b 126 339 356 464 218 414 l 51 454 b 486 606 167 546 329 606 b 1221 422 810 606 979 422 b 1546 585 1349 422 1442 468 l 1640 489 b 1219 279 1515 340 1383 279 "},"‚":{"ha":343,"x_min":0,"x_max":0,"o":"m 133 -276 l 7 -237 l 160 246 l 292 206 "},"„":{"ha":606,"x_min":0,"x_max":0,"o":"m 133 -276 l 7 -237 l 160 246 l 292 206 m 396 -276 l 269 -237 l 422 246 l 554 206 "},"“":{"ha":608,"x_min":0,"x_max":0,"o":"m 213 1082 l 339 1043 l 186 560 l 54 600 m 475 1082 l 601 1043 l 449 560 l 317 600 "},"”":{"ha":608,"x_min":0,"x_max":0,"o":"m 179 561 l 54 600 l 207 1083 l 339 1043 m 442 561 l 317 600 l 469 1083 l 601 1043 "},"‘":{"ha":346,"x_min":0,"x_max":0,"o":"m 213 1081 l 339 1042 l 186 560 l 54 600 "},"’":{"ha":346,"x_min":0,"x_max":0,"o":"m 179 561 l 54 600 l 207 1083 l 339 1043 "},"\"":{"ha":569,"x_min":0,"x_max":0,"o":"m 88 583 l 88 1042 l 235 1042 l 235 583 m 335 583 l 335 1042 l 482 1042 l 482 583 "},"'":{"ha":315,"x_min":0,"x_max":0,"o":"m 88 581 l 88 1042 l 228 1042 l 228 581 "},"«":{"ha":794,"x_min":0,"x_max":0,"o":"m 347 24 l 51 319 l 51 456 l 344 749 l 442 658 l 172 388 l 447 114 m 656 24 l 360 319 l 360 456 l 653 749 l 751 658 l 482 388 l 757 114 "},"»":{"ha":794,"x_min":0,"x_max":0,"o":"m 139 24 l 39 114 l 314 388 l 44 658 l 142 749 l 435 456 l 435 319 m 449 24 l 347 114 l 622 388 l 353 658 l 451 749 l 744 456 l 744 319 "},"‹":{"ha":486,"x_min":0,"x_max":0,"o":"m 347 24 l 51 319 l 51 456 l 344 749 l 442 658 l 172 388 l 447 114 "},"›":{"ha":486,"x_min":0,"x_max":0,"o":"m 139 24 l 39 114 l 314 388 l 44 658 l 142 749 l 435 456 l 435 319 "},"¢":{"ha":817,"x_min":0,"x_max":0,"o":"m 353 -71 l 353 103 b 44 490 157 133 44 290 b 353 869 44 706 174 843 l 353 1031 l 465 1031 l 465 872 b 772 568 642 856 760 739 l 611 568 b 465 729 599 654 544 714 l 465 242 b 611 406 543 256 597 314 l 772 406 b 465 99 754 228 639 114 l 465 -71 m 353 724 b 211 490 265 696 211 611 b 353 250 211 363 269 279 "},"¤":{"ha":792,"x_min":0,"x_max":0,"o":"m 121 72 l 50 139 l 160 249 b 100 431 121 296 100 358 b 154 603 100 497 119 557 l 50 708 l 121 775 l 226 669 b 396 714 274 697 331 714 b 565 669 461 714 519 699 l 672 775 l 743 710 l 638 606 b 694 429 674 558 694 499 b 633 247 694 357 672 294 l 742 138 l 671 72 l 558 185 b 396 143 513 158 458 143 b 233 185 335 143 279 158 m 396 281 b 546 429 485 281 546 342 b 396 578 546 518 485 578 b 249 429 308 578 249 517 b 396 281 249 342 308 281 "},"$":{"ha":908,"x_min":0,"x_max":0,"o":"m 861 267 b 519 -21 861 96 729 -14 l 519 -187 l 407 -187 l 407 -15 b 60 300 203 13 71 131 l 231 300 b 407 136 243 217 306 158 l 407 433 l 379 442 b 88 717 265 476 88 526 b 407 993 88 869 208 983 l 407 1149 l 519 1149 l 519 988 b 832 661 706 960 821 840 l 663 661 b 519 833 657 746 608 808 l 519 561 l 579 543 b 861 267 717 500 861 450 m 253 725 b 407 597 253 647 324 624 l 407 844 b 253 725 313 838 253 794 m 519 128 b 692 258 632 133 692 181 b 538 394 692 335 632 365 l 519 400 "},"€":{"ha":1164,"x_min":0,"x_max":0,"o":"m 639 131 b 936 375 796 131 906 221 l 1107 375 b 639 -21 1063 122 893 -21 b 167 342 392 -21 218 121 l 21 342 l 21 440 l 151 440 b 150 489 150 456 150 472 b 151 521 150 500 150 510 l 21 521 l 21 621 l 164 621 b 639 993 211 844 383 993 b 1107 597 892 993 1065 846 l 936 597 b 639 843 906 750 793 843 b 339 621 486 843 379 760 l 763 621 l 763 521 l 322 521 b 321 489 321 510 321 500 b 322 440 321 472 321 456 l 763 440 l 763 342 l 342 342 b 639 131 385 208 492 131 "},"£":{"ha":921,"x_min":0,"x_max":0,"o":"m 61 0 l 61 151 b 261 279 201 151 261 201 b 221 404 261 322 243 363 l 61 404 l 61 529 l 153 529 b 117 683 132 575 117 625 b 463 993 117 865 260 993 b 817 671 650 993 790 881 l 642 671 b 463 842 624 782 556 842 b 294 679 364 842 294 776 b 338 529 294 629 314 578 l 606 529 l 606 404 l 403 404 b 433 294 421 367 433 329 b 313 151 433 225 385 171 l 582 151 b 692 258 653 151 692 189 l 692 390 l 854 390 l 854 258 b 582 0 854 90 758 0 "},"¥":{"ha":933,"x_min":0,"x_max":0,"o":"m 382 0 l 382 136 l 103 136 l 103 236 l 382 236 l 382 317 l 103 317 l 103 415 l 382 415 l 14 972 l 207 972 l 467 574 l 726 972 l 919 972 l 549 415 l 831 415 l 831 317 l 549 317 l 549 236 l 831 236 l 831 136 l 549 136 l 549 0 "},"+":{"ha":793,"x_min":0,"x_max":0,"o":"m 322 97 l 322 358 l 51 358 l 51 493 l 322 493 l 322 757 l 472 757 l 472 493 l 742 493 l 742 358 l 472 358 l 472 97 "},"−":{"ha":751,"x_min":0,"x_max":0,"o":"m 51 358 l 51 493 l 700 493 l 700 358 "},"×":{"ha":718,"x_min":0,"x_max":0,"o":"m 143 97 l 44 194 l 263 413 l 44 629 l 143 726 l 360 510 l 576 726 l 675 629 l 458 413 l 675 194 l 576 97 l 360 314 "},"÷":{"ha":807,"x_min":0,"x_max":0,"o":"m 404 592 b 297 699 342 592 297 638 b 404 803 297 758 342 803 b 511 699 465 803 511 758 b 404 592 511 638 465 592 m 51 358 l 51 493 l 757 493 l 757 358 m 404 50 b 297 158 342 50 297 97 b 404 263 297 217 342 263 b 511 158 465 263 511 217 b 404 50 511 97 465 50 "},"=":{"ha":807,"x_min":0,"x_max":0,"o":"m 60 490 l 60 628 l 749 628 l 749 490 m 60 188 l 60 324 l 749 324 l 749 188 "},"≠":{"ha":807,"x_min":0,"x_max":0,"o":"m 215 35 l 153 86 l 217 188 l 60 188 l 60 324 l 303 324 l 408 490 l 60 490 l 60 628 l 496 628 l 585 769 l 650 724 l 589 628 l 749 628 l 749 490 l 503 490 l 397 324 l 749 324 l 749 188 l 311 188 "},">":{"ha":794,"x_min":0,"x_max":0,"o":"m 124 -18 l 44 104 l 594 389 l 44 676 l 124 796 l 743 474 l 743 306 "},"<":{"ha":794,"x_min":0,"x_max":0,"o":"m 671 -18 l 51 306 l 51 474 l 671 796 l 750 676 l 200 389 l 750 104 "},"≥":{"ha":851,"x_min":0,"x_max":0,"o":"m 110 204 l 72 339 l 565 504 l 72 668 l 110 804 l 779 581 l 779 428 m 78 26 l 78 163 l 779 163 l 779 26 "},"≤":{"ha":851,"x_min":0,"x_max":0,"o":"m 742 204 l 72 428 l 72 581 l 742 804 l 779 668 l 286 504 l 779 339 m 72 26 l 72 163 l 774 163 l 774 26 "},"±":{"ha":849,"x_min":0,"x_max":0,"o":"m 350 219 l 350 422 l 60 422 l 60 558 l 350 558 l 350 761 l 500 761 l 500 558 l 790 558 l 790 422 l 500 422 l 500 219 m 60 26 l 60 163 l 790 163 l 790 26 "},"≈":{"ha":838,"x_min":0,"x_max":0,"o":"m 600 393 b 278 533 461 393 353 533 b 203 413 229 533 203 493 l 51 413 b 249 683 51 590 121 683 b 565 542 375 683 479 542 b 632 657 611 542 632 582 l 788 657 b 600 393 788 485 725 393 m 600 67 b 278 207 461 67 353 207 b 203 86 229 207 203 167 l 51 86 b 249 357 51 264 121 357 b 565 215 375 357 479 215 b 632 331 611 215 632 256 l 788 331 b 600 67 788 158 725 67 "},"~":{"ha":838,"x_min":0,"x_max":0,"o":"m 600 260 b 278 400 461 260 353 400 b 203 279 229 400 203 360 l 51 279 b 249 550 51 457 121 550 b 565 408 375 550 479 408 b 632 524 611 408 632 449 l 788 524 b 600 260 788 351 725 260 "},"¬":{"ha":803,"x_min":0,"x_max":0,"o":"m 583 24 l 583 333 l 51 333 l 51 469 l 733 469 l 733 24 "},"^":{"ha":672,"x_min":0,"x_max":0,"o":"m 46 600 l 263 972 l 408 972 l 626 600 l 453 600 l 336 807 l 219 600 "},"∅":{"ha":1000,"x_min":0,"x_max":0,"o":"m 821 793 b 944 478 899 714 944 604 b 500 35 944 224 756 35 b 265 97 413 35 332 57 l 154 -42 l 69 14 l 185 158 b 57 478 106 238 57 349 b 500 922 57 733 244 922 b 744 854 592 922 675 897 l 847 983 l 931 929 m 210 478 b 283 281 210 400 238 332 l 646 733 b 501 769 604 757 556 769 b 210 478 335 769 210 644 m 501 188 b 792 478 668 188 792 313 b 724 669 792 553 767 619 l 364 219 b 501 188 404 199 451 188 "},"∫":{"ha":831,"x_min":0,"x_max":0,"o":"m 39 -204 l 39 -49 l 183 -49 b 265 14 231 -49 258 -26 l 396 761 b 647 972 421 900 510 972 l 792 972 l 792 817 l 647 817 b 565 754 601 817 572 794 l 435 8 b 183 -204 411 -132 322 -204 "},"∑":{"ha":821,"x_min":0,"x_max":0,"o":"m 60 0 l 60 157 l 358 497 l 60 817 l 60 972 l 761 972 l 761 818 l 268 818 l 514 563 l 514 429 l 269 154 l 761 154 l 761 0 "},"√":{"ha":926,"x_min":0,"x_max":0,"o":"m 428 0 l 225 581 l 22 581 l 22 736 l 346 736 l 513 238 l 776 1074 l 939 1042 l 606 0 "},"∂":{"ha":833,"x_min":0,"x_max":0,"o":"m 393 -21 b 47 333 188 -21 47 124 b 379 686 47 540 185 686 b 607 594 472 686 547 651 b 246 944 585 768 450 881 l 288 1094 b 776 478 624 999 776 783 b 393 -21 776 181 638 -21 m 397 126 b 613 460 531 126 618 256 b 414 546 554 514 488 546 b 214 335 293 546 214 460 b 397 126 214 213 289 126 "},"∏":{"ha":1015,"x_min":0,"x_max":0,"o":"m 261 0 l 261 822 l 93 822 l 93 972 l 922 972 l 922 822 l 754 822 l 754 0 l 588 0 l 588 822 l 428 822 l 428 0 "},"%":{"ha":1263,"x_min":0,"x_max":0,"o":"m 347 -40 l 226 18 l 926 1031 l 1049 974 m 274 476 b 42 731 138 476 42 581 b 274 993 42 886 138 993 b 507 739 411 993 507 889 b 274 476 507 585 411 476 m 274 589 b 385 736 339 589 385 649 b 275 882 385 822 340 882 b 164 735 210 882 164 822 b 274 589 164 649 210 589 m 989 -21 b 756 235 851 -21 756 85 b 989 496 756 390 851 497 b 1221 242 1125 494 1221 390 b 989 -21 1221 88 1125 -21 m 989 92 b 1100 239 1054 92 1100 151 b 990 385 1100 325 1054 385 b 878 238 924 385 878 325 b 989 92 878 151 924 92 "},"‰":{"ha":1738,"x_min":0,"x_max":0,"o":"m 347 -40 l 226 18 l 926 1031 l 1049 974 m 274 476 b 42 731 138 476 42 581 b 274 993 42 886 138 993 b 507 739 411 993 507 889 b 274 476 507 585 411 476 m 274 589 b 385 736 339 589 385 649 b 275 882 385 822 340 882 b 164 735 210 882 164 822 b 274 589 164 649 210 589 m 989 -21 b 756 235 851 -21 756 85 b 989 496 756 390 851 497 b 1221 242 1125 494 1221 390 b 989 -21 1221 88 1125 -21 m 1464 -22 b 1231 233 1328 -22 1231 85 b 1464 494 1231 389 1328 496 b 1696 240 1599 493 1696 390 b 1464 -22 1696 88 1599 -22 m 1464 86 b 1578 238 1531 86 1578 149 b 1465 388 1578 328 1531 388 b 1349 236 1396 388 1349 326 b 1464 86 1349 149 1396 86 m 989 92 b 1100 239 1054 92 1100 151 b 990 385 1100 325 1054 385 b 878 238 924 385 878 325 b 989 92 878 151 924 92 "},"↑":{"ha":1111,"x_min":0,"x_max":0,"o":"m 476 -97 l 476 793 l 150 467 l 43 569 l 476 1001 l 635 1001 l 1068 569 l 964 464 l 635 794 l 635 -97 "},"↗":{"ha":1140,"x_min":0,"x_max":0,"o":"m 157 -15 l 43 92 l 775 822 l 283 822 l 283 974 l 926 974 l 1039 865 l 1039 222 l 886 222 l 886 713 "},"→":{"ha":1315,"x_min":0,"x_max":0,"o":"m 825 -40 l 708 57 l 1046 394 l 51 394 l 51 546 l 1047 546 l 710 882 l 825 979 l 1258 546 l 1258 394 "},"↘":{"ha":1140,"x_min":0,"x_max":0,"o":"m 283 -1 l 283 150 l 775 150 l 43 881 l 157 988 l 886 260 l 886 750 l 1039 750 l 1039 107 l 926 -1 "},"↓":{"ha":1111,"x_min":0,"x_max":0,"o":"m 476 -29 l 43 403 l 150 506 l 476 179 l 476 1069 l 635 1069 l 635 179 l 964 508 l 1068 403 l 635 -29 "},"↙":{"ha":1140,"x_min":0,"x_max":0,"o":"m 214 -1 l 101 107 l 101 750 l 254 750 l 254 260 l 983 988 l 1097 881 l 365 150 l 857 150 l 857 -1 "},"←":{"ha":1315,"x_min":0,"x_max":0,"o":"m 490 -40 l 57 394 l 57 546 l 490 979 l 606 882 l 268 546 l 1264 546 l 1264 394 l 269 394 l 607 57 "},"↖":{"ha":1140,"x_min":0,"x_max":0,"o":"m 983 -14 l 254 714 l 254 224 l 101 224 l 101 867 l 214 975 l 857 975 l 857 824 l 365 824 l 1097 93 "},"↔":{"ha":1482,"x_min":0,"x_max":0,"o":"m 490 -40 l 57 394 l 57 546 l 490 979 l 603 881 l 267 546 l 1215 546 l 879 881 l 992 979 l 1425 546 l 1425 394 l 992 -40 l 878 57 l 1214 394 l 268 394 l 604 57 "},"↰":{"ha":1285,"x_min":0,"x_max":0,"o":"m 1035 0 l 1035 521 l 271 521 l 486 306 l 382 203 l 63 521 l 63 672 l 389 1001 l 496 899 l 269 672 l 1188 672 l 1188 0 "},"↱":{"ha":1285,"x_min":0,"x_max":0,"o":"m 99 0 l 99 672 l 1015 672 l 789 899 l 896 1001 l 1222 672 l 1222 521 l 904 203 l 800 306 l 1015 521 l 251 521 l 251 0 "},"↲":{"ha":1285,"x_min":0,"x_max":0,"o":"m 389 -29 l 63 300 l 63 451 l 382 769 l 486 667 l 271 451 l 1035 451 l 1035 972 l 1188 972 l 1188 300 l 269 300 l 496 74 "},"↳":{"ha":1285,"x_min":0,"x_max":0,"o":"m 899 -29 l 792 74 l 1018 300 l 101 300 l 101 972 l 254 972 l 254 451 l 1018 451 l 803 667 l 907 769 l 1225 451 l 1225 300 "},"◊":{"ha":804,"x_min":0,"x_max":0,"o":"m 328 0 l 44 486 l 328 972 l 475 972 l 760 486 l 475 0 m 401 174 l 583 486 l 401 799 l 221 486 "},"@":{"ha":1236,"x_min":0,"x_max":0,"o":"m 658 -157 b 64 376 300 -157 64 46 b 654 956 64 713 307 956 b 1179 457 964 956 1179 750 b 929 115 1179 254 1075 115 b 781 229 842 115 785 164 b 574 115 736 158 664 115 b 336 372 432 115 336 221 b 618 699 336 558 460 699 b 808 594 704 699 772 657 l 832 679 l 908 679 l 869 292 b 931 218 865 247 889 218 b 1065 450 1010 218 1065 315 b 650 840 1065 683 896 840 b 188 378 378 840 188 644 b 664 -44 188 114 375 -44 b 954 19 771 -44 865 -24 l 954 -103 b 658 -157 874 -136 778 -157 m 599 214 b 769 404 689 214 758 293 b 632 600 782 519 725 600 b 457 382 533 600 457 506 b 599 214 457 283 514 214 "},"&":{"ha":990,"x_min":0,"x_max":0,"o":"m 428 -21 b 57 265 207 -21 57 94 b 285 560 57 417 171 500 b 188 769 225 628 188 692 b 440 993 188 899 294 993 b 699 768 588 993 697 899 b 513 533 699 651 613 586 l 718 324 b 756 544 742 386 754 460 l 907 544 b 832 210 907 413 881 300 l 967 72 l 853 -29 l 738 92 b 428 -21 658 19 553 -21 m 419 625 b 540 761 489 660 540 697 b 443 857 540 817 500 857 b 344 761 386 857 344 817 b 419 625 344 715 372 675 m 436 124 b 635 197 518 124 585 149 l 376 464 b 225 281 293 419 225 368 b 436 124 225 186 306 124 "},"¶":{"ha":889,"x_min":0,"x_max":0,"o":"m 381 -143 l 381 351 l 372 351 b 49 667 174 356 49 488 b 372 972 49 825 160 971 l 779 972 l 779 -143 l 629 -143 l 629 839 l 531 839 l 531 -143 "},"§":{"ha":825,"x_min":0,"x_max":0,"o":"m 417 -136 b 104 103 236 -136 114 -43 l 263 103 b 422 -1 269 40 331 -1 b 554 88 506 -1 554 31 b 444 176 554 144 508 156 l 335 213 b 107 417 213 251 107 296 b 240 596 107 500 163 561 b 111 776 165 631 111 679 b 393 993 111 907 221 993 b 694 746 563 993 675 903 l 539 746 b 389 858 531 819 474 858 b 272 778 317 858 272 828 b 389 688 272 721 336 706 l 478 658 b 711 443 624 610 711 565 b 574 275 711 367 656 304 b 718 83 667 236 718 186 b 417 -136 718 -53 607 -136 m 488 307 b 560 415 532 329 560 371 b 436 526 560 483 510 503 l 335 560 b 258 456 286 536 258 503 b 385 342 258 375 332 360 "},"©":{"ha":1222,"x_min":0,"x_max":0,"o":"m 611 -71 b 60 482 297 -71 60 157 b 611 1035 60 797 286 1035 b 1164 482 926 1035 1164 808 b 611 -71 1164 168 938 -71 m 611 38 b 1046 482 858 38 1046 219 b 611 926 1046 736 868 926 b 176 482 364 926 176 744 b 611 38 176 229 356 38 m 622 215 b 360 485 467 215 360 325 b 618 751 360 642 465 751 b 864 540 754 751 850 669 l 751 540 b 618 651 743 608 689 651 b 475 485 535 651 475 583 b 624 314 475 383 536 314 b 751 426 693 314 743 357 l 864 426 b 622 215 849 299 751 215 "},"®":{"ha":843,"x_min":0,"x_max":0,"o":"m 422 285 b 44 661 207 285 44 439 b 422 1038 44 876 200 1038 b 799 661 638 1038 799 883 b 422 285 799 447 644 285 m 422 376 b 699 661 581 376 699 493 b 422 944 699 824 586 944 b 144 661 264 944 144 829 b 422 376 144 500 258 376 m 275 490 l 275 833 l 463 833 b 585 731 535 833 585 790 b 514 638 585 686 557 651 b 560 596 536 632 553 619 l 594 490 l 507 490 l 482 576 b 449 600 478 592 465 600 l 360 600 l 360 490 m 360 669 l 465 669 b 506 714 492 669 506 692 b 465 758 506 736 492 758 l 360 758 "},"™":{"ha":978,"x_min":0,"x_max":0,"o":"m 171 503 l 171 886 l 26 886 l 26 972 l 407 972 l 407 886 l 264 886 l 264 503 m 436 503 l 436 972 l 538 972 l 679 607 l 819 972 l 919 972 l 919 503 l 826 503 l 826 778 l 721 503 l 635 503 l 531 774 l 531 503 "},"°":{"ha":519,"x_min":0,"x_max":0,"o":"m 260 543 b 43 756 125 543 43 642 b 260 965 43 868 125 965 b 476 756 394 965 476 868 b 260 543 476 642 394 543 m 260 651 b 358 754 319 651 358 699 b 260 857 358 810 319 857 b 161 754 200 857 161 810 b 260 651 161 699 200 651 "},"|":{"ha":386,"x_min":0,"x_max":0,"o":"m 110 -160 l 110 1042 l 276 1042 l 276 -160 "},"¦":{"ha":386,"x_min":0,"x_max":0,"o":"m 110 514 l 110 1042 l 276 1042 l 276 514 m 110 -160 l 110 368 l 276 368 l 276 -160 "},"†":{"ha":747,"x_min":0,"x_max":0,"o":"m 294 336 l 294 754 l 51 754 l 51 888 l 294 888 l 294 1042 l 454 1042 l 454 888 l 696 888 l 696 754 l 454 754 l 454 336 "},"‡":{"ha":764,"x_min":0,"x_max":0,"o":"m 303 336 l 303 492 l 60 492 l 60 624 l 303 624 l 303 754 l 60 754 l 60 888 l 303 888 l 303 1042 l 463 1042 l 463 888 l 704 888 l 704 754 l 463 754 l 463 624 l 704 624 l 704 492 l 463 492 l 463 336 "},"№":{"ha":1476,"x_min":0,"x_max":0,"o":"m 1222 543 b 1007 769 1096 543 1007 636 b 1222 993 1007 903 1096 993 b 1433 769 1346 993 1433 903 b 1222 543 1433 636 1346 543 m 101 0 l 101 972 l 282 972 l 764 240 l 764 972 l 931 972 l 931 0 l 750 0 l 268 732 l 268 0 m 1222 657 b 1317 769 1278 657 1317 704 b 1222 879 1317 835 1278 879 b 1126 769 1165 879 1126 835 b 1222 657 1126 704 1165 657 m 1058 306 l 1058 440 l 1385 440 l 1385 306 "},"℮":{"ha":1094,"x_min":0,"x_max":0,"o":"m 579 -21 b 51 486 278 -21 51 196 b 561 993 51 774 271 993 b 1043 519 840 993 1049 799 l 1043 483 l 257 483 l 257 136 b 579 22 340 64 453 22 b 994 307 786 22 943 136 l 1040 307 b 579 -21 997 114 817 -21 m 257 525 l 846 525 l 846 854 b 561 950 772 915 675 950 b 257 842 442 950 336 910 "},"⏎":{"ha":1286,"x_min":0,"x_max":0,"o":"m 389 -29 l 63 300 l 63 451 l 382 769 l 486 667 l 271 451 l 1035 451 l 1035 831 l 583 831 l 583 972 l 1188 972 l 1188 300 l 269 300 l 496 74 "},"☀":{"ha":1190,"x_min":0,"x_max":0,"o":"m 569 765 l 569 1025 l 624 1025 l 624 765 m 465 735 l 368 972 l 417 994 l 515 756 m 728 735 l 678 756 l 776 994 l 826 974 m 382 665 l 200 849 l 238 888 l 419 704 m 813 665 l 774 704 l 957 886 l 994 849 m 331 569 l 93 669 l 113 719 l 351 619 m 863 569 l 843 619 l 1081 718 l 1103 669 m 597 279 b 388 489 478 279 388 369 b 597 699 388 608 478 699 b 807 489 717 699 807 608 b 597 279 807 369 717 279 m 60 464 l 60 515 l 321 515 l 321 464 m 874 464 l 874 515 l 1132 515 l 1132 464 m 113 260 l 92 308 l 331 408 l 351 358 m 1082 260 l 843 358 l 863 408 l 1101 310 m 238 92 l 199 129 l 382 313 l 419 275 m 957 92 l 774 275 l 813 313 l 994 131 m 417 -17 l 367 6 l 465 244 l 515 224 m 776 -17 l 678 224 l 728 244 l 826 6 m 569 -47 l 569 213 l 624 213 l 624 -47 "},"☼":{"ha":1190,"x_min":0,"x_max":0,"o":"m 569 765 l 569 1025 l 624 1025 l 624 765 m 465 735 l 368 972 l 417 994 l 515 756 m 728 735 l 678 756 l 776 994 l 826 974 m 382 665 l 200 849 l 238 888 l 419 704 m 813 665 l 774 704 l 957 886 l 994 849 m 331 569 l 93 669 l 113 719 l 351 619 m 863 569 l 843 619 l 1081 718 l 1103 669 m 597 279 b 388 489 478 279 388 369 b 597 699 388 608 478 699 b 807 489 717 699 807 608 b 597 279 807 369 717 279 m 597 385 b 703 490 657 385 703 431 b 597 594 703 550 657 594 b 493 490 538 594 493 550 b 597 385 493 431 538 385 m 60 464 l 60 515 l 321 515 l 321 464 m 874 464 l 874 515 l 1132 515 l 1132 464 m 113 260 l 92 308 l 331 408 l 351 358 m 1082 260 l 843 358 l 863 408 l 1101 310 m 238 92 l 199 129 l 382 313 l 419 275 m 957 92 l 774 275 l 813 313 l 994 131 m 417 -17 l 367 6 l 465 244 l 515 224 m 776 -17 l 678 224 l 728 244 l 826 6 m 569 -47 l 569 213 l 624 213 l 624 -47 "},"¨":{"ha":569,"x_min":0,"x_max":0,"o":"m 139 822 b 38 924 82 822 38 867 b 139 1024 38 979 82 1024 b 239 924 194 1024 239 979 b 139 822 239 867 194 822 m 432 822 b 331 924 376 822 331 867 b 432 1024 331 979 376 1024 b 532 924 488 1024 532 979 b 432 822 532 867 488 822 "},"˙":{"ha":274,"x_min":0,"x_max":0,"o":"m 138 822 b 36 924 79 822 36 865 b 138 1024 36 979 79 1024 b 239 924 196 1024 239 979 b 138 822 239 865 196 822 "},"`":{"ha":503,"x_min":0,"x_max":0,"o":"m 401 801 l 11 1121 l 100 1219 l 492 901 "},"´":{"ha":503,"x_min":0,"x_max":0,"o":"m 100 801 l 11 901 l 401 1219 l 492 1121 "},"˝":{"ha":667,"x_min":0,"x_max":0,"o":"m 136 824 l 17 890 l 326 1275 l 442 1210 m 346 786 l 226 853 l 535 1239 l 650 1175 "},"ˆ":{"ha":650,"x_min":0,"x_max":0,"o":"m 108 801 l 11 893 l 272 1129 l 381 1129 l 639 896 l 540 801 l 325 1003 "},"ˇ":{"ha":650,"x_min":0,"x_max":0,"o":"m 272 831 l 11 1067 l 108 1157 l 325 956 l 540 1157 l 639 1064 l 381 831 "},"˘":{"ha":576,"x_min":0,"x_max":0,"o":"m 290 840 b 43 1061 144 840 43 931 l 43 1074 l 183 1074 l 183 1061 b 290 961 183 1001 228 961 b 394 1061 351 961 394 1001 l 394 1074 l 533 1074 l 533 1061 b 290 840 533 931 433 840 "},"˚":{"ha":381,"x_min":0,"x_max":0,"o":"m 190 799 b 29 951 99 799 29 865 b 190 1104 29 1039 99 1104 b 351 951 282 1104 351 1039 b 190 799 351 865 282 799 m 190 888 b 256 951 231 888 256 917 b 190 1017 256 986 231 1017 b 125 951 149 1017 125 986 b 190 888 125 917 149 888 "},"˜":{"ha":618,"x_min":0,"x_max":0,"o":"m 443 865 b 225 964 346 865 275 964 b 174 872 194 964 174 925 l 43 872 b 190 1086 43 1003 101 1086 b 403 988 285 1086 351 988 b 447 1075 431 988 447 1014 l 575 1075 b 443 865 575 939 528 865 "},"¯":{"ha":581,"x_min":0,"x_max":0,"o":"m 19 861 l 19 990 l 561 990 l 561 861 "},"¸":{"ha":271,"x_min":0,"x_max":0,"o":"m 144 -314 l 17 -289 l 125 22 l 254 0 "},"̈":{"ha":0,"x_min":0,"x_max":0,"o":"m -431 822 b -532 924 -487 822 -532 867 b -431 1024 -532 979 -487 1024 b -331 924 -375 1024 -331 979 b -431 822 -331 867 -375 822 m -137 822 b -239 924 -193 822 -239 867 b -137 1024 -239 979 -193 1024 b -37 924 -82 1024 -37 979 b -137 822 -37 867 -82 822 "},"̇":{"ha":0,"x_min":0,"x_max":0,"o":"m -136 822 b -237 924 -194 822 -237 865 b -136 1024 -237 979 -194 1024 b -35 924 -78 1024 -35 979 b -136 822 -35 865 -78 822 "},"̀":{"ha":0,"x_min":0,"x_max":0,"o":"m -101 801 l -492 1121 l -403 1219 l -11 901 "},"́":{"ha":0,"x_min":0,"x_max":0,"o":"m -403 801 l -492 901 l -101 1219 l -11 1121 "},"̋":{"ha":0,"x_min":0,"x_max":0,"o":"m -531 824 l -650 890 l -340 1275 l -225 1210 m -321 786 l -440 853 l -132 1239 l -17 1175 "},"̂":{"ha":0,"x_min":0,"x_max":0,"o":"m -542 801 l -639 893 l -378 1129 l -269 1129 l -11 896 l -110 801 l -325 1003 "},"̌":{"ha":0,"x_min":0,"x_max":0,"o":"m -378 831 l -639 1067 l -542 1157 l -325 956 l -110 1157 l -11 1064 l -269 831 "},"̆":{"ha":0,"x_min":0,"x_max":0,"o":"m -286 840 b -533 1061 -432 840 -533 931 l -533 1074 l -393 1074 l -393 1061 b -286 961 -393 1001 -349 961 b -182 1061 -225 961 -182 1001 l -182 1074 l -43 1074 l -43 1061 b -286 840 -43 931 -143 840 "},"̊":{"ha":0,"x_min":0,"x_max":0,"o":"m -190 799 b -351 951 -282 799 -351 865 b -190 1104 -351 1039 -282 1104 b -29 951 -99 1104 -29 1039 b -190 799 -29 865 -99 799 m -190 888 b -125 951 -150 888 -125 917 b -190 1017 -125 986 -150 1017 b -256 951 -232 1017 -256 986 b -190 888 -256 917 -232 888 "},"̃":{"ha":0,"x_min":0,"x_max":0,"o":"m -175 865 b -393 964 -272 865 -343 964 b -444 872 -424 964 -444 925 l -575 872 b -428 1086 -575 1003 -517 1086 b -215 988 -333 1086 -267 988 b -171 1075 -187 988 -171 1014 l -43 1075 b -175 865 -43 939 -90 865 "},"̄":{"ha":0,"x_min":0,"x_max":0,"o":"m -561 861 l -561 990 l -19 990 l -19 861 "},"̧":{"ha":0,"x_min":0,"x_max":0,"o":"m -126 -314 l -254 -289 l -146 22 l -17 0 "},"̦":{"ha":0,"x_min":0,"x_max":0,"o":"m -172 -554 l -297 -515 l -147 -42 l -15 -82 "},"̨":{"ha":0,"x_min":0,"x_max":0,"o":"m -144 -300 b -310 -174 -246 -300 -310 -250 b -165 21 -310 -103 -256 -26 l -160 21 l -160 0 l -69 0 b -179 -125 -140 -39 -179 -85 b -125 -168 -179 -154 -157 -168 b -60 -154 -104 -168 -85 -162 l -39 -282 b -144 -300 -76 -294 -110 -300 "}}}
